P3
# 8-bit ppm - RGB
51 32
255
  0   0   0   0   0   0   0   0   0   0   0   0   0   0   0   0   0   0   0   0   0   0
  0   0   0   0   0   0   0   0   0   0   0   0   0   0   0   0   0   0   0   0   0   0
  0   0   0   0   0   0   0   0   0   0   0   0   0   0   0   0   0   0   0   0   0   0
  0   0   7   0   1  25   0   2  52   0   4  86   0   6 118   0   6 123   0   2  50   0
  0   0   0   0   0   0   0   0   0   0   0   0   0   0   0   0   0   0   0   0   0   0
  0   0   0   0   0   0   0   0   0   0   0   0   0   0   0   0   0   0   0   0   0   0
  0   0   0   0   0   0   0   0   0   0   0   0   0   0   0   0   0   0   0   0   0
  0   0   0   0   0   0   0   0   0   0   0   0   0   0   0   0   0   0   0   0   0   0
  0   0   0   0   0   0   0   0   0   0   0   0   0   0   0   0   0   0   0   0   0   0
  0   0   0   0   0   0   0   0   0   0   0   0   0   0   0   0   0   0   0   0   2  49
  0   7 149   0   8 178   0   9 197   0  10 207   0  10 211   0  10 213   0   4  86   0
  0   0   0   0   0   0   0   0   0   0   0   0   0   0   0   0   0   0   0   0   0   0
  0   0   0   0   0   0   0   0   0   0   0   0   0   0   0   0   0   0   0   0   0   0
  0   0   0   0   0   0   0   0   0   0   0   0   0   0   0   0   0   0   0   0   0
  0   0   0   0   0   0   0   0   0   0   0   0   0   0   0   0   0   0   0   0   0   0
  0   0   0   0   0   0   0   0   0   0   0   0   0   0   0   0   0   0   0   0   0   0
  0   0   0   0   0   0   0   0   0   0   0   0   0   0   0   0   0   1  13   0   7 154
  0  10 215   0  10 212   0  10 211   0  10 210   0  10 210   0  10 212   0   7 139   0
  1  13   0   0   0   0   0   0   0   0   0   0   0   0   0   0   0   0   0   0   0   0
  0   0   0   0   0   0   0   0   0   0   0   0   0   0   0   0   0   0   0   0   0   0
  0   0   0   0   0   0   0   0   0   0   0   0   0   0   0   0   0   0   0   0   0
  0   0   0   0   0   0   0   0   0   0   0   0   0   0   0   0   0   0   0   0   0   0
  0   0   0   0   0   0   0   0   0   0   0   0   0   0   0   0   0   0   0   0   0   0
  0   0   0   0   0   0   0   0   0   0   0   0   0   0   0   0   0   4  90   0  10 208
  0  10 210   0  10 210   0  10 210   0  10 210   0  10 210   0  10 211   0  10 209   0
  6 131   0   1  14   0   0   0   0   0   0   0   0   0   0   0   0   0   0   0   0   0
  0   0   0   0   0   0   0   0   0   0   0   0   0   0   0   0   0   0   0   0   0   0
  0   0   0   0   0   0   0   0   0   0   0   0   0   0   0   0   0   0   0   0   0
  0   0   0   0   0   0   0   0   0   0   0   0   0   0   0   0   0   0   0   0   0   0
  0   0   0   0   0   0   0   0   0   0   0   0   0   0   0   0   0   0   0   0   0   0
  0   0   0   0   0   0   0   0   0   0   0   0   0   0   2  33   0   9 181   0  10 212
  0  10 210   0  10 210   0  10 210   0  10 210   0  10 212   0   8 168   0   5 101   0
  9 190   0   6 133   0   1  14   0   0   0   0   0   0   0   0   0   0   0   0   0   0
  0   0   0   0   0   0   0   0   0   0   0   0   0   0   0   0   0   0   0   0   0   0
  0   0   0   0   0   0   0   0   0   0   0   0   0   0   0   0   0   0   0   0   0
  0   0   0   0   0   0   0   0   0   0   0   0   0   0   0   0   0   0   0   0   0   0
  0   0   0   0   0   0   0   0   0   0   0   0   0   0   0   0   0   0   0   0   0   0
  0   0   0   0   0   0   0   0   0   0   0   0   3   0   6 127   0  10 212   0  10 210
  0  10 210   0  10 210   0  10 210   0  10 212   0   8 165   0   2  36   0   0   0   0
  3  71   0   9 192   0   6 132   0   1  12   0   0   0   0   0   0   0   0   0   0   0
  0   0   0   0   0   0   0   0   0   0   0   0   0   0   0   0   0   0   0   0   0   0
  0   0   0   0   0   0   0   0   0   0   0   0   0   0   0   0   0   0   0   0   0
  0   0   0   0   0   0   0   0   0   0   0   0   0   0   0   0   0   0   0   0   0   0
  0   0   0   0   0   0   0   0   0   0   0   0   0   0   0   0   0   0   0   0   0   0
  0   0   0   0   0   0   0   0   0   0   0   3  53   0   9 197   0  10 211   0  10 210
  0  10 210   0  10 210   0  10 210   0  10 212   0   5  96   0   0   0   0   0   0   0
  0   0   0   3  73   0   9 187   0   2  49   0   0   0   0   0   0   0   0   0   0   0
  0   0   0   0   0   0   0   0   0   0   0   0   0   0   0   0   0   0   0   0   0   0
  0   0   0   0   0   0   0   0   0   0   0   0   0   0   0   0   0   0   0   0   0
  0   0   0   0   0   0   0   0   0   0   0   0   0   0   0   0   0   0   0   0   0   0
  0   0   0   0   0   0   0   0   0   0   0   0   0   0   0   0   0   0   0   0   0   0
  0   0   0   0   0   0   0   0   0   8   0   7 144   0  10 213   0  10 210   0  10 210
  0  10 210   0  10 210   0  10 210   0  10 212   0   4  94   0   0   0   0   0   0   0
  0   0   0   1  25   0   8 174   0   3  53   0   0   0   0   0   0   0   0   0   0   0
  0   0   0   0   0   0   0   0   0   0   0   0   0   0   0   0   0   0   0   0   0   0
  0   0   0   0   0   0   0   0   0   0   0   0   0   0   0   0   0   0   0   0   0
  0   0   0   0   0   0   0   0   0   0   0   0   0   0   0   0   0   0   0   0   0   0
  0   0   0   0   0   0   0   0   0   0   0   0   0   0   0   0   0   0   0   0   0   0
  0   0   0   0   0   0   0   0   3  70   0  10 204   0  10 211   0  10 210   0  10 210
  0  10 210   0  10 210   0  10 210   0  10 212   0   4  94   0   0   0   0   0   0   0
  0   0   0   4  77   0   9 199   0   2  51   0   0   0   0   0   0   0   0   0   0   0
  0   0   0   0   0   0   0   0   0   0   0   0   0   0   0   0   0   0   0   0   0   0
  0   0   0   0   0   0   0   0   0   0   0   0   0   0   0   0   0   0   0   0   0
  0   0   0   0   0   0   0   0   0   0   0   0   0   0   0   0   0   0   0   0   0   0
  0   0   0   0   0   0   0   0   0   0   0   0   0   0   0   0   0   0   0   0   0   0
  0   0   0   0   0   1  21   0   8 163   0  10 213   0  10 210   0  10 210   0  10 210
  0  10 210   0  10 210   0  10 210   0  10 213   0   4  92   0   0   0   0   0   0   0
  0   0   0   6 123   0  10 208   0   3  62   0   0   0   0   0   0   0   0   0   0   0
  0   0   0   0   0   0   0   0   0   0   0   0   0   0   0   0   0   0   0   0   0   0
  0   0   0   0   0   0   0   0   0   0   0   0   0   0   0   0   0   0   0   0   0
  0   0   0   0   0   0   0   0   0   0   0   0   0   0   0   0   0   0   0   0   0   0
  0   0   0   0   0   0   0   0   0   0   0   0   0   0   0   0   0   0   0   0   0   0
  0   0   1  20   0   7 141   0  10 210   0  10 210   0  10 210   0  10 210   0  10 210
  0  10 210   0  10 210   0  10 212   0   8 165   0   2  34   0   0   0   0   0   0   0
  0   0   0   2  41   0   8 167   0   8 165   0   2  34   0   0   0   0   0   0   0   0
  0   0   0   0   0   0   0   0   0   0   0   0   0   0   0   0   0   0   0   0   0   0
  0   0   0   0   0   0   0   0   0   0   0   0   0   0   0   0   0   0   0   0   0
  0   0   0   0   0   0   0   0   0   0   0   0   0   0   0   0   0   0   0   0   0   0
  0   0   0   0   0   0   0   0   0   0   0   0   0   0   0   0   0   0   0   0   0   1
 23   0   7 146   0  10 211   0  10 210   0  10 210   0  10 210   0  10 210   0  10 210
  0  10 210   0  10 212   0   9 179   0   2  37   0   0   0   0   0   0   0   0   0   0
  0   0   0   0   0   0   2  34   0   8 171   0   8 167   0   2  36   0   0   0   0   0
  0   0   0   0   0   0   0   0   0   0   0   0   0   0   0   0   0   0   0   0   0   0
  0   0   0   0   0   0   0   0   0   0   0   0   0   0   0   0   0   0   0   0   0
  0   0   0   0   0   0   0   0   0   0   0   0   0   0   0   0   0   0   0   0   0   0
  0   0   0   0   0   0   0   0   0   0   0   0   0   0   0   0   0   0   1  26   0   7
149   0  10 212   0  10 210   0  10 210   0  10 210   0  10 210   0  10 210   0  10 210
  0  10 210   0  10 211   0   9 193   0   3  73   0   0   0   0   0   0   0   0   0   0
  0   0   0   0   0   0   0   0   0   3  60   0  10 200   0   8 168   0   2  39   0   0
  0   0   0   0   0   0   0   0   0   0   0   0   0   0   0   0   0   0   0   0   0   0
  0   0   0   0   0   0   0   0   0   0   0   0   0   0   0   0   0   0   0   0   0
  0   0   0   0   0   0   0   0   0   0   0   0   0   0   0   0   0   0   0   0   0   0
  0   0   0   0   0   0   0   0   0   0   0   0   0   0   0   0   3   0   6 132   0  10
213   0  10 210   0  10 210   0  10 210   0  10 210   0  10 210   0  10 210   0  10 210
  0  10 210   0  10 210   0  10 212   0   9 195   0   4  79   0   0   0   0   0   0   0
  0   0   0   0   0   0   0   0   0   0   1   0   5 112   0  10 213   0   8 170   0   2
 41   0   0   0   0   0   0   0   0   0   0   0   0   0   0   0   0   0   0   0   0   0
  0   0   0   0   0   0   0   0   0   0   0   0   0   0   0   0   0   0   0   0   0
  0   0   0   0   0   0   0   0   0   0   0   0   0   0   0   0   0   0   0   0   0   0
  0   0   0   0   0   0   0   0   0   0   0   0   0   0   0   0   5   0   7 155   0  10
213   0  10 210   0  10 210   0  10 210   0  10 210   0  10 210   0  10 210   0  10 210
  0  10 210   0  10 210   0  10 210   0  10 212   0   9 196   0   4  82   0   0   3   0
  0   0   0   0   0   0   0   0   0   0   0   0   1  20   0   8 162   0  10 215   0   8
171   0   2  43   0   0   0   0   0   0   0   0   0   0   0   0   0   0   0   0   0   0
  0   0   0   0   0   0   0   0   0   0   0   0   0   0   0   0   0   0   0   0   0
  0   0   0   0   0   0   0   0   0   0   0   0   0   0   0   0   0   0   0   0   0   0
  0   0   0   0   0   0   0   0   0   0   0   0   0   0   0   2  33   0   8 177   0  10
212   0  10 210   0  10 210   0  10 210   0  10 210   0  10 210   0  10 210   0  10 210
  0  10 210   0  10 210   0  10 210   0  10 210   0  10 213   0   9 185   0   2  36   0
  0   0   0   0   0   0   0   0   0   0   0   0   0   0   0   3  58   0   9 196   0  10
214   0   8 176   0   3  65   0   0   3   0   0   0   0   0   0   0   0   0   0   0   0
  0   0   0   0   0   0   0   0   0   0   0   0   0   0   0   0   0   0   0   0   0
  0   0   0   0   0   0   0   0   0   0   0   0   0   0   0   0   0   0   0   0   0   0
  0   0   0   0   0   0   0   0   0   0   0   0   1  31   0   8 159   0  10 211   0  10
210   0  10 210   0  10 210   0  10 210   0  10 210   0  10 210   0  10 210   0  10 210
  0  10 210   0  10 210   0  10 210   0  10 211   0   9 193   0   4  82   0   0   4   0
  0   0   0   0   0   0   0   0   0   0   0   0   0   0   0   0   1   0   5 109   0  10
211   0  10 214   0  10 200   0   6 123   0   1  28   0   0   0   0   0   0   0   0   0
  0   0   0   0   0   0   0   0   0   0   0   0   0   0   0   0   0   0   0   0   0
  0   0   0   0   0   0   0   0   0   0   0   0   0   0   0   0   0   0   0   0   0   0
  1  16   0   4  80   0   5 110   0   2  49   0   8 159   0  10 212   0  10 210   0  10
210   0  10 210   0  10 210   0  10 210   0  10 210   0  10 210   0  10 210   0  10 210
  0  10 210   0  10 210   0  10 210   0  10 212   0   7 153   0   1  12   0   0   0   0
  0   0   0   0   0   0   0   0   0   0   0   0   0   0   0   0   0   0   1  14   0   5
 97   0   8 175   0  10 211   0  10 214   0   8 175   0   4  77   0   0   6   0   0   0
  0   0   0   0   0   0   0   0   0   0   0   0   0   0   0   0   0   0   0   0   0
  0   0   0   0   0   0   0   0   0   0   0   0   0   0   0   0   1  19   0   4  84   0
  8 164   0  10 207   0  10 209   0   9 193   0  10 211   0  10 210   0  10 210   0  10
210   0  10 210   0  10 210   0  10 210   0  10 210   0  10 210   0  10 210   0  10 210
  0  10 210   0  10 210   0  10 210   0  10 210   0  10 207   0   6 125   0   1  13   0
  0   0   0   0   0   0   0   0   0   0   0   0   0   0   0   0   0   0   0   0   0   0
  0   0   1  23   0   4  92   0   8 173   0  10 213   0  10 204   0   6 135   0   2  39
  0   0   2   0   0   0   0   0   0   0   0   0   0   0   0   0   0   0   0   0   0
  0   0   0   0   0   0   0   0   0   0   1  22   0   4  90   0   8 169   0  10 208   0
 10 213   0  10 210   0  10 210   0  10 211   0  10 210   0  10 210   0  10 210   0  10
210   0  10 210   0  10 210   0  10 210   0  10 210   0  10 210   0  10 210   0  10 210
  0  10 210   0  10 210   0  10 210   0  10 210   0  10 211   0  10 210   0   6 129   0
  1  14   0   0   0   0   0   0   0   0   0   0   0   0   0   0   0   0   0   0   0   0
  0   0   0   0   0   0   0   0   1  26   0   7 145   0  10 212   0  10 213   0   9 188
  0   6 134   0   3  72   0   1  18   0   0   0   0   0   0   0   0   0   0   0   0
  0   0   0   0   1  24   0   5  96   0   8 173   0  10 209   0  10 212   0  10 210   0
 10 210   0  10 210   0  10 210   0  10 210   0  10 210   0  10 210   0  10 210   0  10
210   0  10 210   0  10 210   0  10 210   0  10 210   0  10 210   0  10 210   0  10 210
  0  10 210   0  10 210   0  10 210   0  10 210   0  10 210   0  10 210   0  10 210   0
  6 132   0   1  14   0   0   0   0   0   0   0   0   1   0   1  11   0   1  13   0   0
  2   0   0   0   0   0   0   0   0   0   0   1  21   0   7 145   0  10 212   0  10 212
  0  10 213   0  10 209   0   6 122   0   0   1   0   0   0   0   0   0   0   0   0
  0   5  98   0   8 173   0  10 210   0  10 212   0  10 210   0  10 210   0  10 210   0
 10 210   0  10 210   0  10 210   0  10 210   0  10 210   0  10 210   0  10 210   0  10
210   0  10 210   0  10 210   0  10 210   0  10 210   0  10 210   0  10 210   0  10 210
  0  10 210   0  10 210   0  10 211   0  10 212   0  10 211   0  10 210   0  10 211   0
 10 204   0   3  55   0   0   0   0   0   0   0   0   2   0   5 110   0   8 171   0   3
 65   0   0   0   0   0   0   0   0   0   0   0   0   0   1  21   0   7 145   0  10 211
  0  10 210   0  10 212   0   8 176   0   1  20   0   0   0   0   0   0   0   0   0
  0  10 210   0  10 212   0  10 210   0  10 210   0  10 210   0  10 210   0  10 210   0
 10 210   0  10 210   0  10 210   0  10 210   0  10 210   0  10 210   0  10 210   0  10
210   0  10 210   0  10 210   0  10 210   0  10 210   0  10 210   0  10 210   0  10 210
  0  10 210   0  10 211   0  10 201   0   9 181   0   9 194   0  10 210   0  10 210   0
 10 205   0   3  59   0   0   0   0   0   0   0   0   0   0   4  85   0  10 214   0   7
157   0   1  12   0   0   0   0   0   0   0   0   0   0   0   0   0   1  20   0   7 145
  0  10 212   0  10 212   0  10 203   0   3  64   0   0   0   0   0   0   0   0   0
  0  10 210   0  10 210   0  10 210   0  10 210   0  10 210   0  10 212   0  10 212   0
 10 211   0  10 210   0  10 210   0  10 210   0  10 210   0  10 210   0  10 210   0  10
210   0  10 210   0  10 210   0  10 210   0  10 210   0  10 210   0  10 210   0  10 210
  0  10 210   0  10 213   0   6 132   0   1  18   0   5 107   0  10 213   0  10 210   0
 10 211   0   5 108   0   0   0   0   0   0   0   0   0   0   1  30   0   9 184   0  10
208   0   4  76   0   0   0   0   0   0   0   0   0   0   0   0   0   0   0   0   1  22
  0   6 135   0   9 197   0  10 213   0   9 182   0   5 102   0   1  28   0   0   0
  0  10 212   0  10 210   0  10 210   0  10 212   0  10 209   0   8 177   0   8 172   0
  9 191   0  10 203   0  10 210   0  10 211   0  10 210   0  10 210   0  10 210   0  10
210   0  10 210   0  10 210   0  10 210   0  10 210   0  10 210   0  10 210   0  10 210
  0  10 210   0  10 210   0   4  85   0   0   0   0   4  75   0   9 195   0  10 211   0
 10 213   0   9 185   0   2  35   0   0   0   0   0   0   0   0   0   0   4  82   0  10
206   0   8 163   0   1  17   0   0   0   0   0   0   0   0   0   0   0   0   0   0   0
  0   0   7   0   2  45   0   5 105   0   9 186   0  10 212   0   9 182   0   5  99
  0   8 170   0  10 206   0  10 209   0   8 170   0   4  89   0   1  22   0   1  16   0
  2  33   0   3  54   0   4  80   0   7 152   0  10 211   0  10 210   0  10 210   0  10
210   0  10 210   0  10 211   0  10 213   0  10 213   0  10 213   0  10 210   0  10 210
  0  10 211   0  10 200   0   2  50   0   0   0   0   0   6   0   2  41   0   5  98   0
  8 178   0  10 214   0   6 118   0   0   0   0   0   0   0   1  11   0   5 115   0  10
206   0  10 209   0   6 127   0   1  14   0   0   0   0   0   0   0   0   0   0   0   0
  0   0   0   0   0   0   0   0   0   0   6 133   0  10 218   0  10 200   0   4  92
  0   1  18   0   4  77   0   4  85   0   1  20   0   0   0   0   0   0   0   0   0   0
  0   0   0   0   0   0   0   0   0   5  98   0  10 213   0  10 210   0  10 210   0  10
210   0  10 212   0   9 183   0   5 114   0   5 107   0   6 123   0  10 200   0  10 211
  0  10 212   0   9 179   0   1  22   0   0   0   0   0   0   0   0   0   0   0   0   0
  4  83   0  10 210   0   9 192   0   5  95   0   4  79   0   7 139   0  10 209   0  10
213   0  10 213   0  10 200   0   4  91   0   0   0   0   0   0   0   0   0   0   0   0
  0   0   0   0   0   0   0   0   0   0   4  80   0   6 133   0   3  73   0   0   1
  0   0   0   0   0   0   0   0   0   0   0   0   0   0   0   0   0   0   0   0   0   0
  0   0   0   0   0   0   0   0   0   5 100   0  10 213   0  10 210   0  10 210   0  10
212   0   9 179   0   3  53   0   0   0   0   0   0   0   1  28   0   9 189   0  10 211
  0  10 213   0   8 161   0   0   9   0   0   0   0   0   0   0   0   0   0   0   0   0
  1  30   0   9 186   0  10 212   0  10 210   0  10 211   0  10 214   0  10 200   0   8
165   0   5 112   0   3  55   0   1  17   0   0   0   0   0   0   0   0   0   0   0   0
  0   0   0   0   0   0   0   0   0   0   0   0   0   0   0   0   0   0   0   0   0
  0   0   0   0   0   0   0   0   0   0   0   0   0   0   0   0   0   0   0   0   0   0
  0   0   0   0   0   0   0   0   0   5  98   0  10 214   0  10 213   0  10 213   0   8
176   0   2  48   0   0   0   0   0   0   0   0   0   0   2  52   0   9 199   0  10 211
  0  10 211   0   9 190   0   2  37   0   0   0   0   0   0   0   0   0   0   0   0   0
  0   3   0   6 120   0  10 211   0  10 212   0   9 196   0   5 114   0   2  50   0   1
 13   0   0   0   0   0   0   0   0   0   0   0   0   0   0   0   0   0   0   0   0   0
  0   0   0   0   0   0   0   0   0   0   0   0   0   0   0   0   0   0   0   0   0
  0   0   0   0   0   0   0   0   0   0   0   0   0   0   0   0   0   0   0   0   0   0
  0   0   0   0   0   0   0   0   0   1  31   0   5 108   0   8 168   0   8 166   0   2
 46   0   0   0   0   0   0   0   0   0   0   0   5   0   7 137   0  10 213   0  10 210
  0  10 211   0  10 214   0   5  97   0   0   0   0   0   0   0   0   0   0   0   0   0
  0   0   0   1  15   0   6 128   0   9 187   0   4  75   0   0   0   0   0   0   0   0
  0   0   0   0   0   0   0   0   0   0   0   0   0   0   0   0   0   0   0   0   0   0
  0   0   0   0   0   0   0   0   0   0   0   0   0   0   0   0   0   0   0   0   0
  0   0   0   0   0   0   0   0   0   0   0   0   0   0   0   0   0   0   0   0   0   0
  0   0   0   0   0   0   0   0   0   0   0   0   0   0   0   1  15   0   1  21   0   0
  0   0   0   0   0   0   0   0   0   0   0   0   8   0   7 143   0  10 213   0  10 210
  0   9 188   0   6 132   0   2  48   0   0   0   0   0   0   0   0   0   0   0   0   0
  0   0   0   0   0   0   1  13   0   2  39   0   0   0   0   0   0   0   0   0   0   0
  0   0   0   0   0   0   0   0   0   0   0   0   0   0   0   0   0   0   0   0   0   0
  0   0   0   0   0   0   0   0   0   0   0   0   0   0   0   0   0   0   0   0   0
  0   0   0   0   0   0   0   0   0   0   0   0   0   0   0   0   0   0   0   0   0   0
  0   0   0   0   0   0   0   0   0   0   0   0   0   0   0   0   0   0   0   0   0   0
  0   0   0   0   0   0   0   0   0   0   0   0   0   0   2  45   0   8 170   0   6 117
  0   2  42   0   0   3   0   0   0   0   0   0   0   0   0   0   0   0   0   0   0   0
  0   0   0   0   0   0   0   0   0   0   0   0   0   0   0   0   0   0   0   0   0   0
  0   0   0   0   0   0   0   0   0   0   0   0   0   0   0   0   0   0   0   0   0   0
  0   0   0   0   0   0   0   0   0   0   0   0   0   0   0   0   0   0   0   0   0
