P3
# 8-bit ppm - RGB
83 32
255
  0   0   0   0   0   0   0   0   0   0   0   0   0   0   0   0   0   0   0   0   0   0
  0   0   0   0   0   0   0   0   0   0   0   0   0   0   0   0   0   0   0   0   0   0
  0   0   0   0   0   0   0   0   0   0   0   0   0   0   0   0   0   0   0   0   0   0
  0   0   0   0   0   0   0   0   0   0   0   0   0   0   0   0   0   0   0   0   0   0
  0   0   0   0   0   0   0   0   0   0   0   0   0   0   0   0   0   0   0   0   0   0
  0   0   0   0   0   0   0   0   0   0   0   0   0   0   0   0   0   0   0   0   0   0
  0   0   0   0   0   0   0   0   0   0   0   0   0   0   0   0   0   0   0   0   0   0
  0   0   0   0   0   0   0   0   0   0   0   0   0   0   0   0   0   0   0   0   0   0
  0   0   0   0   0   0   0   0   0   0   0   0   0   0   0   0   0   0   0   0   0   0
  0   0   0   0   0   0   0   0   0   0   0   0   0   0   0   0   0   0   0   0   0   0
  0   0   0   0   0   0   0   0   0   0   0   0   0   0   0   0   0   0   0   0   0   0
  0   0   0   0   0   0   0
  0   0   0   0   0   0   0   0   0   0   0   0   0   0   0   0   0   0   0   0   0   0
  0   0   0   0   0   0   0   0   0   0   0   0   0   0   0   0   0   0   0   0   0   0
  0   0   0   0   0   0   0   0   0   0   0   0   0   0   0   0   0   0   0   0   0   0
  0   0   0   0   0   0   0   0   0   0   0   0   0   0   0   0   0   0   0   0   0   0
  0   0   0   0   0   0   0   0   0   0   0   0   0   0   0   0   0   0   0   0   0   0
  0   0   0   0   0   0   0   0   0   0   0   0   0   0   0   0   0   0   0   0   0   0
  0   0   0   0   0   0   0   0   0   0   0   0   0   0   0   0   0   0   0   0   0   0
  0   0   0   0   0   0   0   0   0   0   0   0   0   0   0   0   0   0   0   0   0   0
  0   0   0   0   0   0   0   0   0   0   0   0   0   0   0   0   0   0   0   0   0   0
  0   0   0   0   0   0   0   0   0   0   0   0   0   0   0   0   0   0   0   0   0   0
  0   0   0   0   0   0   0   0   0   0   0   0   0   0   0   0   0   0   0   0   0   0
  0   0   0   0   0   0   0
  0   0   0   0   0   0   0   0   0   0   0   0   0   0   0   0   0   0   0   0   0   0
  0   0   0   0   0   0   0   0   0   0   0   0   0   0   0   0   0   0   0   0   0   0
  0   0   0   0   0   0   0   0   0   0   0   0   0   0   0   0   0   0   0   0   0   0
  0   0   0   0   0   0   0   0   0   0   0   0   0   0   0   0   0   0   0   0   0   0
  0   0   0   0   0   0   0   0   0   0   0   0   0   0   0   0   0   0   0   0   0   0
  0   0   0   0   0   0   0   0   0   0   0   0   0   0   0   0   0   0   0   0   0   0
  0   0   0   0   0   0   0   0   0   0   0   0   0   0   0   0   0   0   0   0   0   0
  0   0   0   0   0   0   0   0   0   0   0   0   0   0   0   0   0   0   0   0   0   0
  0   0   0   0   0   0   0   0   0   0   0   0   0   0   0   0   0   0   0   0   0   0
  0   0   0   0   0   0   0   0   0   0   0   0   0   0   0   0   0   0   0   0   0   0
  0   0   0   0   0   0   0   0   0   0   0   0   0   0   0   0   0   0   0   0   0   0
  0   0   0   0   0   0   0
  0   0   0   0   0   0   0   0   0   0   0   0   0   0   0   0   0   0   0   0   0   0
  0   0   0   0   0   0   0   0   0   0   0   0   0   0   0   0   0   0   0   0   0   0
  0   0   0   0   0   0   0   0   0   0   0   0   0   0   0   0   0   0   0   0   0   0
  0   0   0   0   0   0   0   0   0   0   0   0   0   0   0   0   0   0   0   0   0   0
  0   0   0   0   0   0   0   0   0   0   0   0   0   0   0   0   0   0   0   0   0   0
  0   0   0   0   0   0   0   0   0   0   0   0   0   0   0   0   0   0   0   0   0   0
  0   0   0   0   0   0   0   0   0   0   0   0   0   0   0   0   0   0   0   0   0   0
  0   0   0   0   0   0   0   0   0   0   0   0   0   0   0   0   0   0   0   0   0   0
  0   0   0   0   0   0   0   0   0   0   0   0   0   0   0   0   0   0   0   0   0   0
  0   0   0   0   0   0   0   0   0   0   0   0   0   0   0   0   0   0   0   0   0   0
  0   0   0   0   0   0   0   0   0   0   0   0   0   0   0   0   0   0   0   0   0   0
  0   0   0   0   0   0   0
  0   0   0   0   0   0   0   0   0   0   0   0   0   0   0   0   0   0   0   0   0   0
  0   0   0   0   0   0   0   0   0   0   0   0   0   0   0   0   0   0   0   0   0   0
  0   0   0   0   0   0   0   0   0   0   0   0   0   0   0   0   0   0   0   0   0   0
  0   0   0   0   0   0   0   0   0   0   0   0   0   0   0   0   0   0   0   0   0   0
  0   0   0   0   0   0   0   0   0   0   0   0   0   0   0   0   0   0   0   0   0   0
  0   0   0   0   0   0   0   0   0   0   0   0   0   0   0   0   0   0   0   0   0   0
  0   0   0   0   0   0   0   0   0   0   0   0   0   0   0   0   0   0   0   0   0   0
  0   0   0   0   0   0   0   0   0   0   0   0   0   0   0   0   0   0   0   0   0   0
  0   0   0   0   0   0   0   0   0   0   0   0   0   0   0   0   0   0   0   0   0   0
  0   0   0   0   0   0   0   0   0   0   0   0   0   0   0   0   0   0   0   0   0   0
  0   0   0   0   0   0   0   0   0   0   0   0   0   0   0   0   0   0   0   0   0   0
  0   0   0   0   0   0   0
  0   0   0   0   0   0   0   0   0   0   0   0   0   0   0   0   0   0   0   0   0   0
  0   0   0   0   0   0   0   0   0   0   0   0   0   0   0   0   0   0   0   0   0   0
  0   0   0   0   0   0   0   0   0   0   0   0   0   0   0   0   0   0   0   0   0   0
  0   0   0   0   0   0   0   0   0   0   0   0   0   0   0   0   0   0   0   0   0   0
  0   0   0   0   0   0   0   0   0   0   0   0   0   0   0   0   0   0   0   0   0   0
  0   0   0   0   0   0   0   0   0   0   0   0   0   0   0   0   0   0   0   0   0   0
  0   0   0   0   0   0   0   0   0   0   0   0   0   0   0   0   0   0   0   0   0   0
  0   0   0   0   0   0   0   0   0   0   0   0   0   0   0   0   0   0   0   0   0   0
  0   0   0   0   0   0   0   0   0   0   0   0   0   0   0   0   0   0   0   0   0   0
  0   0   0   0   0   0   0   0   0   0   0   0   0   0   0   0   0   0   0   0   0   0
  0   0   0   0   0   0   0   0   0   0   0   0   0   0   0   0   0   0   0   0   0   0
  0   0   0   0   0   0   0
  0   0   0   0   0   0   0   0   0   0   0   0   0   0   0   0   0   0   0   0   0   0
  0   0   0   0   0   0   0   0   0   0   0   0   0   0   0   0   0   0   0   0   0   0
  0   0   0   0   0   0   0   0   0   0   0   0   0   0   0   0   0   0   0   0   0   0
  0   0   0   0   0   0   0   0   0   0   0   0   0   0   0   0   0   0   0   0   0   0
  0   0   0   0   0   0   0   0   0   0   0   0   0   0   0   0   0   0   0   0   0   0
  0   0   0   0   0   0   0   0   0   0   0   0   0   0   0   0   0   0   0   0   0   0
  0   0   0   0   0   0   0   0   0   0   0   0   0   0   0   0   0   0   0   0   0   0
  0   0   0   0   0   0   0   0   0   0   0   0   0   0   0   0   0   0   0   0   0   0
  0   0   0   0   0   0   0   0   0   0   0   0   0   0   0   0   0   0   0   0   0   0
  0   0   0   0   0   0   0   0   0   0   0   0   0   0   0   0   0   0   0   0   0   0
  0   0   0   0   0   0   0   0   0   0   0   0   0   0   0   0   0   0   0   0   0   0
  0   0   0   0   0   0   0
  0   0   0   0   0   0   0   0   0   0   0   0   0   0   0   0   0   0   0   0   0   0
  0   0   0   0   0   0   0   0   0   0   0   0   0   0   0   0   0   0   0   0   0   0
  0   0   0   0   0   0   0   0   0   0   0   0   0   0   0   0   0   0   0   0   0   0
  0   0   0   0   0   0   0   0   0   0   0   0   0   0   0   0   0   0   0   0   0   0
  0   0   0   0   0   0   0   0   0   0   0   0   0   0   0   0   0   0   0   0   0   0
  0   0   0   0   0   0   0   0   0   0   0   0   0   0   0   0   0   0   0   0   0   0
  0   0   0   0   0   0   0   0   0   0   0   0   0   0   0   0   0   0   0   0   0   0
  0   0   0   0   0   0   0   0   0   0   0   0   0   0   0   0   0   0   0   0   0   0
  0   0   0   0   0   0   0   0   0   0   0   0   0   0   0   0   0   0   0   0   0   0
  0   0   0   0   0   0   0   0   0   0   0   0   0   0   0   0   0   0   0   0   0   0
  0   0   0   0   0   0   0   0   0   0   0   0   0   0   0   0   0   0   0   0   0   0
  0   0   0   0   0   0   0
  0   0   0   0   0   0   0   0   0   0   0   0   0   0   0   0   0   0   0   0   0   0
  0   0   0   0   0   0   0   0   0   0   0   0   0   0   0   0   0   0   0   0   0   0
  0   0   0   0   0   0   0   0   0   0   0   0   0   0   0   0   0   0   0   0   0   0
  0   0   0   0   0   0   0   0   0   0   0   0   0   0   0   0   0   0   0   0   0   0
  0   0   0   0   0   0   0   0   0   0   0   0   0   0   0   0   0   0   0   0   0   0
  0   0   0   0   0   0   0   0   0   0   0   0   0   0   0   0   0   0   0   0   0   0
  0   0   0   0   0   0   0   0   0   0   0   0   0   0   0   0   0   0   0   0   0   0
  0   0   0   0   0   0   0   0   0   0   0   0   0   0   0   0   0   0   0   0   0   0
  0   0   0   0   0   0   0   0   0   0   0   0   0   0   0   0   0   0   0   0   0   0
  0   0   0   0   0   0   0   0   0   0   0   0   0   0   0   0   0   0   0   0   0   0
  0   0   0   0   0   0   0   0   0   0   0   0   0   0   0   0   0   0   0   0   0   0
  0   0   0   0   0   0   0
  0   0   0   0   0   0   0   0   0   0   0   0   0   0   0   0   0   0   0   0   0   0
  0   0   0   0   0   0   0   0   0   0   0   0   0   0   0   0   0   0   0   0   0   0
  0   0   0   0   0   0   0   0   0   0   0   0   0   0   0   0   0   0   0   0   0   0
  0   0   0   0   0   0   0   0   0   0   0   0   0   0   0   0   0   0   0   0   0   0
  0   0   0   0   0   0   0   0   0   0   0   0   0   0   0   0   0   0   0   0   0   0
  0   0   0   0   0   0   0   0   0   0   0   0   0   0   0   0   0   0   0   0   0   0
  0   0   0   0   0   0   0   0   0   0   0   0   0   0   0   0   0   0   0   0   0   0
  0   0   0   0   0   0   0   0   0   0   0   0   0   0   0   0   0   0   0   0   0   0
  0   0   0   0   0   0   0   0   0   0   0   0   0   0   0   0   0   0   0   0   0   0
  0   0   0   0   0   0   0   0   0   0   0   0   0   0   0   0   0   0   0   0   0   0
  0   0   0   0   0   0   0   0   0   0   0   0   0   0   0   0   0   0   0   0   0   0
  0   0   0   0   0   0   0
  0   0   0 122   7  39 159  10  52 159   9  51 159  10  51 155   9  50  88   5  29   3
  0   1   0   0   0   0   0   0   0   0   0   9   1   3 124   7  40 159  10  52 141   8
 46  23   1   8   0   0   0  36   2  12 149   9  48 157   9  51 144   9  47  27   2   9
  0   0   0   0   0   0  13   1   4  88   5  28 143   9  46 157   9  51 158   9  51 157
  9  51 157   9  51 157   9  51 157   9  51 157   9  51 159   9  51 130   8  42  12   1
  4   0   0   0   0   0   0  36   2  12 115   7  37 151   9  49 158   9  51 157   9  51
157   9  51 157   9  51 157   9  51 157   9  51 157   9  51 160  10  52  84   5  27   0
  0   0   0   0   0   0   0   0   0   0   0   0   0   0  87   5  28 155   9  50 156   9
 51 157   9  51 155   9  50 126   8  41  19   1   6   0   0   0   0   0   0   0   0   0
  0   0   0  23   1   8 142   8  46 159  10  52 159   9  51 159  10  51 145   9  47  50
  3  16   0   0   0   0   0   0   0   0   0   0   0   0  38   2  12 150   9  49 158   9
 51 121   7  39   0   0   0
  0   0   0 161  10  52 205  12  66 203  12  66 203  12  66 204  12  66 188  11  61  57
  3  18   0   0   0   0   0   0   0   0   0  13   1   4 163  10  53 206  12  67 185  11
 60  32   2  10   0   0   0  49   3  16 195  12  63 204  12  66 189  11  61  37   2  12
  0   0   0   4   0   1 115   7  37 199  12  64 203  12  66 205  12  66 206  12  67 206
 12  67 206  12  67 206  12  67 206  12  67 206  12  67 208  12  67 173  10  56  18   1
  6   0   0   0  30   2  10 162  10  53 203  12  66 204  12  66 206  12  67 206  12  67
206  12  67 206  12  67 206  12  67 206  12  67 206  12  67 209  12  68 113   7  37   0
  0   0   0   0   0   0   0   0   0   0   0  26   2   8 173  10  56 205  12  66 204  12
 66 205  12  66 203  12  66 200  12  65  79   5  26   0   0   0   0   0   0   0   0   0
  0   0   0  32   2  10 185  11  60 204  12  66 203  12  66 203  12  66 205  12  66 156
  9  50  19   1   6   0   0   0   0   0   0   0   0   0  52   3  17 196  12  63 205  12
 66 161  10  52   0   0   0
  0   0   0 159   9  51 203  12  66 200  12  65 199  12  64 201  12  65 204  12  66 154
  9  50  17   1   6   0   0   0   0   0   0  12   1   4 161  10  52 205  12  66 183  11
 59  32   2  10   0   0   0  49   3  16 193  12  62 202  12  65 187  11  60  37   2  12
  0   0   0  34   2  11 184  11  60 203  12  66 198  12  64 159  10  52 146   9  47 147
  9  48 147   9  48 147   9  48 147   9  48 147   9  48 149   9  48 122   7  39  12   1
  4   0   0   0  91   5  30 203  12  66 202  12  65 187  11  60 149   9  48 147   9  47
147   9  48 147   9  48 147   9  48 147   9  48 147   9  48 149   9  48  79   5  25   0
  0   0   0   0   0   0   0   0   0   0   0  89   5  29 201  12  65 202  12  65 182  11
 59 165  10  54 199  12  65 204  12  66 150   9  49  10   1   3   0   0   0   0   0   0
  0   0   0  32   2  10 183  11  59 202  12  65 199  12  64 200  12  65 201  12  65 202
 12  65 105   6  34   0   0   0   0   0   0   0   0   0  51   3  17 194  12  63 203  12
 66 159  10  52   0   0   0
  0   0   0 159   9  51 203  12  66 194  12  63 142   8  46 196  12  64 201  12  65 201
 12  65 100   6  32   0   0   0   0   0   0  12   1   4 161  10  52 205  12  66 183  11
 59  32   2  10   0   0   0  49   3  16 193  12  62 202  12  65 187  11  60  37   2  12
  0   0   0  51   3  17 194  12  63 202  12  65 187  11  61  47   3  15   7   0   2   5
  0   2   3   0   1   2   0   1   2   0   1   3   0   1   5   0   1   4   0   1   0   0
  0   0   0   0 115   7  37 204  12  66 204  12  66 144   9  47  15   1   5   7   0   2
  4   0   1   3   0   1   2   0   1   2   0   1   3   0   1   5   0   2   3   0   1   0
  0   0   0   0   0   0   0   0  15   1   5 159   9  51 204  12  66 201  12  65  88   5
 28  30   2  10 174  10  56 203  12  66 194  12  63  60   4  19   0   0   0   0   0   0
  0   0   0  32   2  10 183  11  59 204  12  66 173  10  56 155   9  50 203  12  66 202
 12  65 186  11  60  50   3  16   0   0   0   0   0   0  52   3  17 194  12  63 203  12
 66 159  10  52   0   0   0
  0   0   0 159   9  51 203  12  66 194  12  63  66   4  21 143   9  46 204  12  66 202
 12  65 184  11  59  46   3  15   0   0   0  12   1   4 161  10  52 205  12  66 183  11
 59  32   2  10   0   0   0  49   3  16 193  12  62 202  12  65 187  11  60  37   2  12
  0   0   0  47   3  15 193  12  62 202  12  65 199  12  64 161  10  52 136   8  44 121
  7  39 104   6  34  87   5  28  70   4  23  50   3  16  20   1   7   0   0   0   0   0
  0   0   0   0 110   7  35 205  12  66 202  12  65 189  11  61 148   9  48 131   8  42
115   7  37  98   6  32  81   5  26  63   4  21  39   2  13   9   1   3   0   0   0   0
  0   0   0   0   0   0   0   0  69   4  22 197  12  64 203  12  66 174  10  56  26   2
  8   0   0   0 115   7  37 204  12  66 204  12  66 134   8  43   5   0   1   0   0   0
  0   0   0  32   2  10 183  11  59 205  12  66 160  10  52  59   4  19 183  11  59 202
 12  65 204  12  66 147   9  47  13   1   4   0   0   0  52   3  17 194  12  63 203  12
 66 159  10  52   0   0   0
  0   0   0 159   9  51 203  12  66 195  12  63  50   3  16  47   3  15 186  11  60 202
 12  65 204  12  66 143   9  46  10   1   3  12   1   4 161  10  52 205  12  66 183  11
 59  32   2  10   0   0   0  49   3  16 193  12  62 202  12  65 187  11  60  37   2  12
  0   0   0  20   1   6 163  10  53 206  12  67 203  12  66 204  12  66 205  12  66 205
 12  66 204  12  66 203  12  66 200  12  65 193  12  63 169  10  55  80   5  26   2   0
  1   0   0   0  66   4  21 196  12  63 204  12  66 203  12  66 205  12  66 205  12  66
204  12  66 204  12  66 202  12  65 198  12  64 188  11  61 146   9  47  39   2  13   0
  0   0   0   0   0   7   0   2 141   8  46 204  12  66 203  12  66 112   7  36   0   0
  0   0   0   0  47   3  15 189  11  61 203  12  66 188  11  61  45   3  15   0   0   0
  0   0   0  31   2  10 183  11  59 205  12  66 163  10  53  13   1   4 100   6  32 201
 12  65 201  12  65 200  12  65  91   5  29   0   0   0  51   3  17 194  12  63 203  12
 66 159  10  52   0   0   0
  0   0   0 159   9  51 203  12  66 195  12  63  53   3  17   0   0   0 106   6  34 202
 12  65 201  12  65 199  12  64  86   5  28  11   1   3 161  10  52 205  12  66 183  11
 59  32   2  10   0   0   0  49   3  16 193  12  62 202  12  65 187  11  60  37   2  12
  0   0   0   0   0   0  47   3  15 137   8  44 174  10  56 186  11  60 193  12  62 198
 12  64 201  12  65 203  12  66 204  12  66 202  12  65 204  12  66 185  11  60  39   2
 13   0   0   0   6   0   2  84   5  27 156   9  51 180  11  58 189  11  61 195  12  63
199  12  64 202  12  65 204  12  66 203  12  66 202  12  65 206  12  67 139   8  45   6
  0   2   0   0   0  50   3  16 190  11  62 202  12  65 192  11  62  65   4  21  18   1
  6  20   1   7  28   2   9 154   9  50 203  12  66 204  12  66 117   7  38   1   0   0
  0   0   0  31   2  10 183  11  59 205  12  66 163  10  53  12   1   4  17   1   5 156
  9  50 204  12  66 203  12  66 179  11  58  36   2  12  49   3  16 194  12  63 203  12
 66 159  10  52   0   0   0
  0   0   0 159   9  51 203  12  66 195  12  63  53   3  17   0   0   0  20   1   7 159
 10  52 203  12  66 203  12  66 175  10  57  48   3  16 159   9  51 205  12  66 183  11
 59  32   2  10   0   0   0  49   3  16 193  12  62 202  12  65 187  11  60  37   2  12
  0   0   0   0   0   0   0   0   0   4   0   1  22   1   7  36   2  12  48   3  16  63
  4  20  77   5  25  92   5  30 119   7  38 190  11  61 202  12  65 201  12  65  75   4
 24   0   0   0   0   0   0   0   0   0  11   1   3  28   2   9  40   2  13  54   3  17
 68   4  22  83   5  27  97   6  31 146   9  47 201  12  65 203  12  66 175  10  57  22
  1   7   0   0   0 122   7  40 204  12  66 201  12  65 197  12  64 176  10  57 173  10
 56 173  10  56 173  10  56 189  11  61 202  12  65 202  12  65 179  11  58  32   2  10
  0   0   0  31   2  10 183  11  59 205  12  66 163  10  53  13   1   4   0   0   0  59
  4  19 191  11  62 202  12  65 204  12  66 131   8  42  59   4  19 194  12  63 203  12
 66 159  10  52   0   0   0
  0   0   0 159   9  51 203  12  66 195  12  63  53   3  17   0   0   0   0   0   0  64
  4  21 192  11  62 202  12  65 203  12  66 143   9  46 169  10  55 204  12  66 183  11
 59  32   2  10   0   0   0  49   3  16 193  12  62 202  12  65 187  11  60  37   2  12
  0   0   0   1   0   0   7   0   2   7   0   2   6   0   2   5   0   2   5   0   1   4
  0   1   4   0   1   3   0   1  22   1   7 168  10  54 203  12  66 202  12  65  81   5
 26   0   0   0   3   0   1   8   0   2   7   0   2   6   0   2   5   0   2   4   0   1
  4   0   1   4   0   1   1   0   0  68   4  22 198  12  64 203  12  66 178  11  58  24
  1   8  33   2  11 181  11  59 202  12  65 202  12  65 203  12  66 204  12  66 205  12
 66 205  12  66 205  12  66 204  12  66 202  12  65 201  12  65 203  12  65 100   6  32
  0   0   0  31   2  10 183  11  59 205  12  66 163  10  53  13   1   4   0   0   0   3
  0   1 117   7  38 203  12  66 202  12  65 194  12  63 129   8  42 193  12  62 203  12
 66 159  10  52   0   0   0
  0   0   0 158   9  51 203  12  66 195  12  63  53   3  17   0   0   0   0   0   0   4
  0   1 121   7  39 203  12  66 201  12  65 199  12  64 198  12  64 202  12  65 183  11
 59  32   2  10   0   0   0  49   3  16 193  12  62 202  12  65 187  11  60  37   2  12
  0   0   0  33   2  11 143   9  46 152   9  49 151   9  49 151   9  49 151   9  49 151
  9  49 151   9  49 151   9  49 157   9  51 194  12  63 202  12  65 199  12  64  65   4
 21   0   0   0  79   5  26 154   9  50 151   9  49 151   9  49 151   9  49 151   9  49
151   9  49 151   9  49 151   9  49 170  10  55 201  12  65 204  12  66 168  10  54  16
  1   5 102   6  33 203  12  66 203  12  66 171  10  55  93   6  30  89   5  29  89   5
 29  89   5  29  89   5  29  87   5  28 134   8  43 201  12  65 203  12  66 168  10  54
 19   1   6  30   2  10 183  11  59 205  12  66 163  10  53  13   1   4   0   0   0   0
  0   0  27   2   9 167  10  54 203  12  66 201  12  65 197  12  64 200  12  65 203  12
 66 159  10  52   0   0   0
  0   0   0 160  10  52 205  12  66 197  12  64  54   3  17   0   0   0   0   0   0   0
  0   0  29   2  10 169  10  55 204  12  66 203  12  66 203  12  66 204  12  66 185  11
 60  32   2  10   0   0   0  49   3  16 195  12  63 204  12  66 189  11  61  37   2  12
  0   0   0  46   3  15 196  12  63 206  12  67 206  12  67 206  12  67 206  12  67 206
 12  67 206  12  67 206  12  67 205  12  66 203  12  66 203  12  66 156   9  51  21   1
  7   0   0   0 110   7  36 209  12  68 206  12  67 206  12  67 206  12  67 206  12  67
206  12  67 206  12  67 206  12  67 205  12  66 203  12  66 199  12  64 102   6  33  26
  2   8 172  10  56 205  12  66 203  12  66  95   6  31   0   0   0   0   0   0   0   0
  0   0   0   0   0   0   0   0   0   0  36   2  11 183  11  59 204  12  66 202  12  65
 82   5  27  29   2   9 184  11  60 206  12  67 164  10  53  14   1   4   0   0   0   0
  0   0   0   0   0  73   4  24 195  12  63 203  12  66 203  12  66 203  12  66 205  12
 66 161  10  52   0   0   0
  0   0   0 122   7  39 160  10  52 152   9  49  40   2  13   0   0   0   0   0   0   0
  0   0   0   0   0  65   4  21 150   9  48 158   9  51 158   9  51 159   9  51 143   9
 46  24   1   8   0   0   0  36   2  12 151   9  49 159   9  51 146   9  47  28   2   9
  0   0   0  33   2  11 148   9  48 157   9  51 157   9  51 157   9  51 157   9  51 157
  9  51 157   9  51 157   9  51 156   9  51 149   9  48 113   7  37  36   2  11   0   0
  0   0   0   0  81   5  26 159   9  51 157   9  51 157   9  51 157   9  51 157   9  51
157   9  51 157   9  51 157   9  51 155   9  50 140   8  45  87   5  28  10   1   3  51
  3  16 156   9  50 159   9  51 147   9  47  32   2  10   0   0   0   0   0   0   0   0
  0   0   0   0   0   0   0   0   0   0   4   0   1 111   7  36 161  10  52 161  10  52
108   6  35  27   2   9 142   8  46 161  10  52 126   8  41  10   1   3   0   0   0   0
  0   0   0   0   0   7   0   2 103   6  33 156   9  51 158   9  51 158   9  51 159   9
 51 123   7  40   0   0   0
  0   0   0   0   0   0   0   0   0   0   0   0   0   0   0   0   0   0   0   0   0   0
  0   0   0   0   0   0   0   0   0   0   0   0   0   0   0   0   0   0   0   0   0   0
  0   0   0   0   0   0   0   0   0   0   0   0   0   0   0   0   0   0   0   0   0   0
  0   0   0   0   0   0   0   0   0   0   0   0   0   0   0   0   0   0   0   0   0   0
  0   0   0   0   0   0   0   0   0   0   0   0   0   0   0   0   0   0   0   0   0   0
  0   0   0   0   0   0   0   0   0   0   0   0   0   0   0   0   0   0   0   0   0   0
  0   0   0   0   0   0   0   0   0   0   0   0   0   0   0   0   0   0   0   0   0   0
  0   0   0   0   0   0   0   0   0   0   0   0   0   0   0   0   0   0   0   0   0   0
  0   0   0   0   0   0   0   0   0   0   0   0   0   0   0   0   0   0   0   0   0   0
  0   0   0   0   0   0   0   0   0   0   0   0   0   0   0   0   0   0   0   0   0   0
  0   0   0   0   0   0   0   0   0   0   0   0   0   0   0   0   0   0   0   0   0   0
  0   0   0   0   0   0   0
  0   0   0   0   0   0   0   0   0   0   0   0   0   0   0   0   0   0   0   0   0   0
  0   0   0   0   0   0   0   0   0   0   0   0   0   0   0   0   0   0   0   0   0   0
  0   0   0   0   0   0   0   0   0   0   0   0   0   0   0   0   0   0   0   0   0   0
  0   0   0   0   0   0   0   0   0   0   0   0   0   0   0   0   0   0   0   0   0   0
  0   0   0   0   0   0   0   0   0   0   0   0   0   0   0   0   0   0   0   0   0   0
  0   0   0   0   0   0   0   0   0   0   0   0   0   0   0   0   0   0   0   0   0   0
  0   0   0   0   0   0   0   0   0   0   0   0   0   0   0   0   0   0   0   0   0   0
  0   0   0   0   0   0   0   0   0   0   0   0   0   0   0   0   0   0   0   0   0   0
  0   0   0   0   0   0   0   0   0   0   0   0   0   0   0   0   0   0   0   0   0   0
  0   0   0   0   0   0   0   0   0   0   0   0   0   0   0   0   0   0   0   0   0   0
  0   0   0   0   0   0   0   0   0   0   0   0   0   0   0   0   0   0   0   0   0   0
  0   0   0   0   0   0   0
  0   0   0   0   0   0   0   0   0   0   0   0   0   0   0   0   0   0   0   0   0   0
  0   0   0   0   0   0   0   0   0   0   0   0   0   0   0   0   0   0   0   0   0   0
  0   0   0   0   0   0   0   0   0   0   0   0   0   0   0   0   0   0   0   0   0   0
  0   0   0   0   0   0   0   0   0   0   0   0   0   0   0   0   0   0   0   0   0   0
  0   0   0   0   0   0   0   0   0   0   0   0   0   0   0   0   0   0   0   0   0   0
  0   0   0   0   0   0   0   0   0   0   0   0   0   0   0   0   0   0   0   0   0   0
  0   0   0   0   0   0   0   0   0   0   0   0   0   0   0   0   0   0   0   0   0   0
  0   0   0   0   0   0   0   0   0   0   0   0   0   0   0   0   0   0   0   0   0   0
  0   0   0   0   0   0   0   0   0   0   0   0   0   0   0   0   0   0   0   0   0   0
  0   0   0   0   0   0   0   0   0   0   0   0   0   0   0   0   0   0   0   0   0   0
  0   0   0   0   0   0   0   0   0   0   0   0   0   0   0   0   0   0   0   0   0   0
  0   0   0   0   0   0   0
  0   0   0   0   0   0   0   0   0   0   0   0   0   0   0   0   0   0   0   0   0   0
  0   0   0   0   0   0   0   0   0   0   0   0   0   0   0   0   0   0   0   0   0   0
  0   0   0   0   0   0   0   0   0   0   0   0   0   0   0   0   0   0   0   0   0   0
  0   0   0   0   0   0   0   0   0   0   0   0   0   0   0   0   0   0   0   0   0   0
  0   0   0   0   0   0   0   0   0   0   0   0   0   0   0   0   0   0   0   0   0   0
  0   0   0   0   0   0   0   0   0   0   0   0   0   0   0   0   0   0   0   0   0   0
  0   0   0   0   0   0   0   0   0   0   0   0   0   0   0   0   0   0   0   0   0   0
  0   0   0   0   0   0   0   0   0   0   0   0   0   0   0   0   0   0   0   0   0   0
  0   0   0   0   0   0   0   0   0   0   0   0   0   0   0   0   0   0   0   0   0   0
  0   0   0   0   0   0   0   0   0   0   0   0   0   0   0   0   0   0   0   0   0   0
  0   0   0   0   0   0   0   0   0   0   0   0   0   0   0   0   0   0   0   0   0   0
  0   0   0   0   0   0   0
  0   0   0   0   0   0   0   0   0   0   0   0   0   0   0   0   0   0   0   0   0   0
  0   0   0   0   0   0   0   0   0   0   0   0   0   0   0   0   0   0   0   0   0   0
  0   0   0   0   0   0   0   0   0   0   0   0   0   0   0   0   0   0   0   0   0   0
  0   0   0   0   0   0   0   0   0   0   0   0   0   0   0   0   0   0   0   0   0   0
  0   0   0   0   0   0   0   0   0   0   0   0   0   0   0   0   0   0   0   0   0   0
  0   0   0   0   0   0   0   0   0   0   0   0   0   0   0   0   0   0   0   0   0   0
  0   0   0   0   0   0   0   0   0   0   0   0   0   0   0   0   0   0   0   0   0   0
  0   0   0   0   0   0   0   0   0   0   0   0   0   0   0   0   0   0   0   0   0   0
  0   0   0   0   0   0   0   0   0   0   0   0   0   0   0   0   0   0   0   0   0   0
  0   0   0   0   0   0   0   0   0   0   0   0   0   0   0   0   0   0   0   0   0   0
  0   0   0   0   0   0   0   0   0   0   0   0   0   0   0   0   0   0   0   0   0   0
  0   0   0   0   0   0   0
  0   0   0   0   0   0   0   0   0   0   0   0   0   0   0   0   0   0   0   0   0   0
  0   0   0   0   0   0   0   0   0   0   0   0   0   0   0   0   0   0   0   0   0   0
  0   0   0   0   0   0   0   0   0   0   0   0   0   0   0   0   0   0   0   0   0   0
  0   0   0   0   0   0   0   0   0   0   0   0   0   0   0   0   0   0   0   0   0   0
  0   0   0   0   0   0   0   0   0   0   0   0   0   0   0   0   0   0   0   0   0   0
  0   0   0   0   0   0   0   0   0   0   0   0   0   0   0   0   0   0   0   0   0   0
  0   0   0   0   0   0   0   0   0   0   0   0   0   0   0   0   0   0   0   0   0   0
  0   0   0   0   0   0   0   0   0   0   0   0   0   0   0   0   0   0   0   0   0   0
  0   0   0   0   0   0   0   0   0   0   0   0   0   0   0   0   0   0   0   0   0   0
  0   0   0   0   0   0   0   0   0   0   0   0   0   0   0   0   0   0   0   0   0   0
  0   0   0   0   0   0   0   0   0   0   0   0   0   0   0   0   0   0   0   0   0   0
  0   0   0   0   0   0   0
  0   0   0   0   0   0   0   0   0   0   0   0   0   0   0   0   0   0   0   0   0   0
  0   0   0   0   0   0   0   0   0   0   0   0   0   0   0   0   0   0   0   0   0   0
  0   0   0   0   0   0   0   0   0   0   0   0   0   0   0   0   0   0   0   0   0   0
  0   0   0   0   0   0   0   0   0   0   0   0   0   0   0   0   0   0   0   0   0   0
  0   0   0   0   0   0   0   0   0   0   0   0   0   0   0   0   0   0   0   0   0   0
  0   0   0   0   0   0   0   0   0   0   0   0   0   0   0   0   0   0   0   0   0   0
  0   0   0   0   0   0   0   0   0   0   0   0   0   0   0   0   0   0   0   0   0   0
  0   0   0   0   0   0   0   0   0   0   0   0   0   0   0   0   0   0   0   0   0   0
  0   0   0   0   0   0   0   0   0   0   0   0   0   0   0   0   0   0   0   0   0   0
  0   0   0   0   0   0   0   0   0   0   0   0   0   0   0   0   0   0   0   0   0   0
  0   0   0   0   0   0   0   0   0   0   0   0   0   0   0   0   0   0   0   0   0   0
  0   0   0   0   0   0   0
  0   0   0   0   0   0   0   0   0   0   0   0   0   0   0   0   0   0   0   0   0   0
  0   0   0   0   0   0   0   0   0   0   0   0   0   0   0   0   0   0   0   0   0   0
  0   0   0   0   0   0   0   0   0   0   0   0   0   0   0   0   0   0   0   0   0   0
  0   0   0   0   0   0   0   0   0   0   0   0   0   0   0   0   0   0   0   0   0   0
  0   0   0   0   0   0   0   0   0   0   0   0   0   0   0   0   0   0   0   0   0   0
  0   0   0   0   0   0   0   0   0   0   0   0   0   0   0   0   0   0   0   0   0   0
  0   0   0   0   0   0   0   0   0   0   0   0   0   0   0   0   0   0   0   0   0   0
  0   0   0   0   0   0   0   0   0   0   0   0   0   0   0   0   0   0   0   0   0   0
  0   0   0   0   0   0   0   0   0   0   0   0   0   0   0   0   0   0   0   0   0   0
  0   0   0   0   0   0   0   0   0   0   0   0   0   0   0   0   0   0   0   0   0   0
  0   0   0   0   0   0   0   0   0   0   0   0   0   0   0   0   0   0   0   0   0   0
  0   0   0   0   0   0   0
  0   0   0   0   0   0   0   0   0   0   0   0   0   0   0   0   0   0   0   0   0   0
  0   0   0   0   0   0   0   0   0   0   0   0   0   0   0   0   0   0   0   0   0   0
  0   0   0   0   0   0   0   0   0   0   0   0   0   0   0   0   0   0   0   0   0   0
  0   0   0   0   0   0   0   0   0   0   0   0   0   0   0   0   0   0   0   0   0   0
  0   0   0   0   0   0   0   0   0   0   0   0   0   0   0   0   0   0   0   0   0   0
  0   0   0   0   0   0   0   0   0   0   0   0   0   0   0   0   0   0   0   0   0   0
  0   0   0   0   0   0   0   0   0   0   0   0   0   0   0   0   0   0   0   0   0   0
  0   0   0   0   0   0   0   0   0   0   0   0   0   0   0   0   0   0   0   0   0   0
  0   0   0   0   0   0   0   0   0   0   0   0   0   0   0   0   0   0   0   0   0   0
  0   0   0   0   0   0   0   0   0   0   0   0   0   0   0   0   0   0   0   0   0   0
  0   0   0   0   0   0   0   0   0   0   0   0   0   0   0   0   0   0   0   0   0   0
  0   0   0   0   0   0   0
  0   0   0   0   0   0   0   0   0   0   0   0   0   0   0   0   0   0   0   0   0   0
  0   0   0   0   0   0   0   0   0   0   0   0   0   0   0   0   0   0   0   0   0   0
  0   0   0   0   0   0   0   0   0   0   0   0   0   0   0   0   0   0   0   0   0   0
  0   0   0   0   0   0   0   0   0   0   0   0   0   0   0   0   0   0   0   0   0   0
  0   0   0   0   0   0   0   0   0   0   0   0   0   0   0   0   0   0   0   0   0   0
  0   0   0   0   0   0   0   0   0   0   0   0   0   0   0   0   0   0   0   0   0   0
  0   0   0   0   0   0   0   0   0   0   0   0   0   0   0   0   0   0   0   0   0   0
  0   0   0   0   0   0   0   0   0   0   0   0   0   0   0   0   0   0   0   0   0   0
  0   0   0   0   0   0   0   0   0   0   0   0   0   0   0   0   0   0   0   0   0   0
  0   0   0   0   0   0   0   0   0   0   0   0   0   0   0   0   0   0   0   0   0   0
  0   0   0   0   0   0   0   0   0   0   0   0   0   0   0   0   0   0   0   0   0   0
  0   0   0   0   0   0   0
