P3
# 8-bit ppm - RGB
64 32
255
  0   0   0   0   0   0   0   0   0   0   0   0   0   0   0   0   0   0   0   0   0   0
  0   0   0   0   0   0   0   0   0   0   0   0   0   0   0   0   0   0   0   0   0   0
  0   0   0   0   0   0   0   0   0   0   0   0   0   0   0   0   0   0   0   0   0   0
  0   0   0   0   0   0   0   0   0   0   0   0   0   0   0   0   0   0   0   0   0   0
  0   0   0   0   0   0   0   0   0   0   0   0   0   0   0   0   0   0   0   0   0   0
  0   0   0   0   0   0   0   0   0   0   0   0   0   0   0   0   0   0   0   0   0   0
  0   0   0   0   0   0   0   0   0   0   0   0   0   0   0   0   0   0   0   0   0   0
  0   0   0   0   0   0   0   0   0   0   0   0   0   0   0   0   0   0   0   0   0   0
  0   0   0   0   0   0   0   0   0   0   0   0   0   0   0   0
  0   0   0   0   0   0   0   0   0   0   0   0   0   0   0   0   0   0   0   0   0   0
  0   0   0   0   0   0   0   0   0   0   0   0   0   0   0   0   0   0   0   0   0   0
  0   0   0   0   0   0   0   0   0   0   0   0   0   0   0   0   0   0   0   0   0   0
  0   0   0   0   0   0   0   0   0   0   0   0   0   0   0   0   0   0   0   0   0   0
  0   0   0   0   0   0   0   0   0   0   0   0   0   0   0   0   0   0   0   0   0   0
  0   0   0   0   0   0   0   0   0   0   0   0   0   0   0   0   0   0   0   0   0   0
  0   0   0   0   0   0   0   0   0   0   0   0   0   0   0   0   0   0   0   0   0   0
  0   0   0   0   0   0   0   0   0   0   0   0   0   0   0   0   0   0   0   0   0   0
  0   0   0   0   0   0   0   0   0   0   0   0   0   0   0   0
  0   0   0   0   0   0   0   0   0   0   0   0   0   0   0   0   0   0   0   0   0   0
  0   0   0   0   0   0   0   0   0   0   0   0   0   0   0   0   0   0   0   0   0   0
  0   0   0   0   0   0   0   0   0   0   0   0   0   0   0   0   0   0   0   0   0   0
  0   0   0   0   0   0   0   0   0   0   0   0   0   0   0   0   0   0   0   0   0   0
  0   0   0   0   0   0   0   0   0   0   0   0   0   0   0   0   0   0   0   0   0   0
  0   0   0   0   0   0   0   0   0   0   0   0   0   0   0   0   0   0   0   0   0   0
  0   0   0   0   0   0   0   0   0   0   0   0   0   0   0   0   0   0   0   0   0   0
  0   0   0   0   0   0   0   0   0   0   0   0   0   0   0   0   0   0   0   0   0   0
  0   0   0   0   0   0   0   0   0   0   0   0   0   0   0   0
  0   0   0   0   0   0   0   0   0   0   0   0   0   0   0   0   0   0   0   0   0   0
  0   0   0   0   0   0   0   0   0   0   0   0   0   0   0   0   0   0   0   0   0   0
  0   0   0   0   0   0   0   0   0   0   0   0   0   0   0   0   0   0   0   0   0   0
  0   0   0   0   0   0   0   0   0   0   0   0   0   0   0   0   0   0   0   0   0   0
  0   0   0   0   0   0   0   0   0   0   0   0   0   0   0   0   0   0   0   0   0   0
  0   0   0   0   0   0   0   0   0   0   0   0   0   0   0   0   0   0   0   0   0   0
  0   0   0   0   0   0   0   0   0   0   0   0   0   0   0   0   0   0   0   0   0   0
  0   0   0   0   0   0   0   0   0   0   0   0   0   0   0   0   0   0   0   0   0   0
  0   0   0   0   0   0   0   0   0   0   0   0   0   0   0   0
  0   0   0   0   0   0   0   0   0   0   0   0   0   0   0   0   0   0   0   0   0   0
  0   0   0   0   0   0   0   0   0   0   0   0   0   0   0   0   0   0   0   0   0   0
  0   0   0   0   0   0   0   0   0   0   0   0   0   0   0   0   0   0   0   0   0   0
  0   0   0   0   0   0   0   0   0   0   0   0   0   0   0   0   0   0   0   0   0   0
  0   0   0   0   0   0   0   0   0   0   0   0   0   0   0   0   0   0   0   0   0   0
  0   0   0   0   0   0   0   0   0   0   0   0   0   0   0   0   0   0   0   0   0   0
  0   0   0   0   0   0   0   0   0   0   0   0   0   0   0   0   0   0   0   0   0   0
  0   0   0   0   0   0   0   0   0   0   0   0   0   0   0   0   0   0   0   0   0   0
  0   0   0   0   0   0   0   0   0   0   0   0   0   0   0   0
  0   0   0   0   0   0   0   0   0   0   0   0   0   0   0   0   0   0   0   0   0   0
  0   0   0   0   0   0   0   0   0   0   0   0   0   0   0   0   0   0   0   0   0   0
  0   0   0   0   0   0   0   0   0   0   0   0   0   0   0   0   0   0   0   0   0   0
  0   0   0   0   0   0   0   0   0   0   0   0   0   0   0   0   0   0   0   0   0   0
  0   0   0   0   0   0   0   0   0   0   0   0   0   0   0   0   0   0   0   0   0   0
  0   0   0   0   0   0   0   0   0   0   0   0   0   0   0   0   0   0   0   0   0   0
  0   0   0   0   0   0   0   0   0   0   0   0   0   0   0   0   0   0   0   0   0   0
  0   0   0   0   0   0   0   0   0   0   0   0   0   0   0   0   0   0   0   0   0   0
  0   0   0   0   0   0   0   0   0   0   0   0   0   0   0   0
  0  10 210   0  10 210   0  10 210   0  10 210   0  10 210   0  10 210   0  10 210   0
 10 210   0  10 210   0  10 210   0  10 210   0  10 210   0  10 210   0  10 210   0  10
210   0  10 210   0  10 210   0  10 210   0  10 210   0  10 210   0  10 210   0  10 210
  0  10 210   0  10 210   0  10 210   0  10 210   0  10 210   0  10 210   0  10 210   0
 10 210   0  10 210   0  10 210   0  10 210   0  10 210   0  10 210   0  10 210   0  10
210   0  10 210   0  10 210   0  10 210   0  10 210   0  10 210   0  10 210   0  10 210
  0  10 210   0  10 210   0  10 210   0  10 210   0  10 210   0  10 210   0  10 210   0
 10 210   0  10 210   0  10 210   0  10 210   0  10 210   0  10 210   0  10 210   0  10
210   0  10 210   0  10 210   0  10 210   0  10 210   0  10 210
  0  10 210   0  10 210   0  10 210   0  10 210   0  10 210   0  10 210   0  10 210   0
 10 210   0  10 210   0  10 210   0  10 210   0  10 210   0  10 210   0  10 210   0  10
210   0  10 210   0  10 210   0  10 210   0  10 210   0  10 210   0  10 210   0  10 210
  0  10 210   0  10 210   0  10 210   0  10 210   0  10 210   0  10 210   0  10 210   0
 10 210   0  10 210   0  10 210   0  10 210   0  10 210   0  10 210   0  10 210   0  10
210   0  10 210   0  10 210   0  10 210   0  10 210   0  10 210   0  10 210   0  10 210
  0  10 210   0  10 210   0  10 210   0  10 210   0  10 210   0  10 210   0  10 210   0
 10 210   0  10 210   0  10 210   0  10 210   0  10 210   0  10 210   0  10 210   0  10
210   0  10 210   0  10 210   0  10 210   0  10 210   0  10 210
  0  10 210   0  10 210   0  10 210   0  10 210   0  10 210   0  10 210   2  12 210   4
 14 211   2  12 210   1  11 210   3  13 210   4  14 211   2  12 210   0  10 210   0  10
210   0  10 210   0  10 210   0  10 210   0  10 210   0  10 210   0  10 210   3  13 210
  4  14 211   2  12 210   1  11 210   3  13 211   4  14 211   1  11 210   0  10 210   0
 10 210   0  10 210   0  10 210   0  10 210   0  10 210   0  10 210   0  10 210   3  13
211   4  14 211   2  12 210   1  11 210   3  13 211   4  14 211   1  11 210   0  10 210
  0  10 210   0  10 210   0  10 210   0  10 210   1  11 210   2  13 210   2  13 210   2
 13 210   1  11 210   0  10 210   0  10 210   0  10 210   0  10 210   2  13 210   2  13
210   2  13 211   1  11 210   0  10 210   0  10 210   0  10 210
  0  10 210   0  10 210   0  10 210   0  10 210   0  10 210   3  13 211   0   1 208   0
  0 207   0   0 208   0   3 209   0   0 208   0   0 207   0   4 209   3  13 211   0  10
210   0  10 210   0  10 210   0  10 210   0  10 210   1  11 210   3  13 211   0   0 208
  0   0 207   0   1 208   0   3 209   0   0 208   0   0 207   0   7 209   3  13 211   0
 10 210   0  10 210   0  10 210   0  10 210   0  10 210   1  11 210   2  11 210   0   0
207   0   0 207   0   2 208   0   2 209   0   0 207   0   0 207   0   9 210   2  12 210
  0  10 210   0  10 210   0  10 210   1  11 210   0   6 209   0   0 208   0   0 208   0
  0 208   0   7 209   1  11 210   0  10 210   0  10 210   0  10 210   0   0 208   0   0
208   0   0 208   0   4 209   1  11 210   0  10 210   0  10 210
  0  10 210   0  10 210   0  10 210   0  10 210   2  12 210   0   0 207  40  48 217 136
140 234 187 190 243 201 203 245 180 183 242 124 129 232  26  35 215   0   0 207   3  13
211   0  10 210   0  10 210   0  10 210   1  11 210   0  10 210   0   0 208  58  66 220
148 152 236 192 194 244 200 202 245 173 177 241 109 115 229  11  21 212   0   0 208   3
 13 211   0  10 210   0  10 210   0  10 210   2  12 210   0   6 209   0   1 208  76  83
223 158 162 238 196 198 245 198 200 245 165 169 239  93  99 226   0   9 210   0   3 209
  3  13 210   0  10 210   1  12 210   0   2 209  26  48 216 105 161 233 100 153 232 103
158 233  20  39 214   0   4 209   1  12 210   0   9 210   2  13 210  88 137 229 102 157
232 107 165 234  46  76 220   0   0 208   2  12 210   0  10 210
  0  10 210   0  10 210   0  10 210   2  12 210   0   0 208 111 116 230 255 255 255 255
255 255 255 255 255 255 255 255 255 255 255 255 255 255 245 246 253  82  88 224   0   0
207   3  13 211   0  10 210   1  11 210   0  10 210   0   3 209 144 149 235 255 255 255
255 255 255 255 255 255 255 255 255 255 255 255 255 255 255 228 229 250  51  59 219   0
  0 208   3  13 211   0  10 210   1  11 210   0   6 209   6  16 211 176 179 241 255 255
255 255 255 255 255 255 255 255 255 255 255 255 255 255 255 255 205 206 246  25  34 214
  0   3 209   2  12 210   2  13 210   0   0 208  43  72 219 172 255 248 161 242 245 176
255 249  81 126 228   0   0 207   5  16 211   0   0 208  39  66 219 169 253 247 161 242
245 177 255 249  75 117 226   0   0 207   3  14 211   0  10 210
  0  10 210   0  10 210   4  13 211   0   0 207  95 101 227 255 255 255 255 255 255 175
178 241  50  58 219  31  40 215  69  77 222 210 212 247 255 255 255 255 255 255  54  61
219   0   0 208   3  13 210   3  13 211   0   0 207 136 141 234 255 255 255 255 255 255
148 152 236  42  50 217  32  41 216  88  95 226 230 231 251 255 255 255 238 239 252  23
 32 214   0   4 209   2  12 210   1  11 210   0   1 208 177 180 241 255 255 255 251 252
254 121 126 231  36  45 216  35  43 216 111 116 230 245 246 253 255 255 255 207 209 246
  1  11 210   0   9 210   3  13 211   0   0 208  40  68 219 159 239 245 151 227 243 158
237 245 135 204 240   3  14 211   1  12 210   0   0 208  98 151 232 164 246 246 148 224
243 164 245 246  69 109 225   0   0 208   2  14 211   0  10 210
  0  10 210   1  11 210   0   8 210   7  17 211 226 228 250 255 255 255 200 202 245   0
  1 208   0   0 207   0   5 209   0   0 206  27  36 215 237 238 252 255 255 255 184 187
242   0   0 208   4  14 211   0   3 209  34  43 216 252 252 254 255 255 255 164 167 239
  0   0 206   0   1 208   0   5 209   0   0 205  62  70 221 254 254 255 255 255 255 142
146 235   0   0 207   7  17 211   0   0 208  71  78 223 255 255 255 255 255 255 123 128
232   0   0 205   0   3 209   0   4 209   0   0 205 103 109 228 255 255 255 255 255 255
 98 104 227   0   0 207   6  16 211   0   0 208  40  68 219 162 244 246 150 225 243 149
225 243 164 246 246  48  79 221   0   0 207  15  31 213 148 222 242 153 230 244 148 223
243 167 250 247  70 111 225   0   0 208   2  14 211   0  10 210
  0  10 210   3  13 210   0   0 208  59  67 220 255 255 255 255 255 255 105 111 229   0
  0 207   8  17 211   2  12 210   9  18 212   0   0 207 163 167 239 255 255 255 235 236
251  18  27 213   0   9 210   0   0 207 100 106 228 255 255 255 255 255 255  63  70 221
  0   0 208   6  16 211   2  12 210   5  15 211   0   2 209 202 204 246 255 255 255 205
207 246   0   6 209   5  15 211   0   0 207 143 147 235 255 255 255 245 245 253  27  36
215   0   5 209   4  14 211   4  14 211   0   9 210  12  22 212 233 234 251 255 255 255
167 171 240   0   0 207   5  16 211   0   0 208  40  67 219 167 250 247 132 200 239 101
155 232 172 255 248 108 165 234   0   0 206  64 102 224 173 255 248  99 152 232 135 204
240 170 255 247  70 110 225   0   0 208   2  14 211   0  10 210
  0  10 210   3  13 211   0   0 207  80  87 224 255 255 255 255 255 255  80  87 224   0
  0 207   4  13 211   2  12 210   2  12 210   0   0 207 135 139 234 255 255 255 245 245
253  33  41 216   0   7 209   0   0 207 122 128 232 255 255 255 251 251 254  43  51 218
  0   1 208   3  13 211   1  11 210   1  11 210   0   0 208 176 179 241 255 255 255 220
221 249   6  16 211   2  12 210   0   0 207 165 168 239 255 255 255 228 229 250  13  23
212   0   7 209   3  12 210   0  10 210   0   9 210   3  13 211 212 214 247 255 255 255
186 188 243   0   0 208   4  15 211   0   0 208  40  67 219 166 249 246 136 205 240  40
 68 219 157 235 244 153 230 244  14  30 213 118 179 236 160 241 245  38  65 218 139 211
241 169 254 247  70 110 225   0   0 208   2  14 211   0  10 210
  0  10 210   3  13 211   0   0 207  69  76 222 255 255 255 255 255 255  93  99 226   0
  0 207   3  13 211   0   1 208  13  22 212   0   0 205 152 156 237 255 255 255 239 239
252  23  32 214   0   9 210   0   0 207 111 116 230 255 255 255 255 255 255  53  60 219
  0   2 208   0   8 210   0   5 209   8  17 211   0   0 207 192 195 244 255 255 255 210
212 247   0   9 210   4  14 211   0   0 207 154 158 237 255 255 255 238 239 252  20  29
213   0   9 210   0   3 209   0  10 210   0   9 210   1  11 210 225 227 250 255 255 255
174 177 241   0   0 207   5  16 211   0   0 208  40  67 219 164 247 246 144 217 242   4
 16 211 113 173 235 168 251 247 105 161 233 157 236 244 110 168 234   7  20 212 147 222
242 168 252 247  70 110 225   0   0 208   2  14 211   0  10 210
  0  10 210   1  11 210   0   4 209  25  34 214 244 244 253 255 255 255 172 175 240   0
  0 206   0   4 209 130 135 233 225 226 250  41  49 217 208 210 247 255 255 255 203 205
246   0   4 209   4  14 211   0   0 208  59  66 220 255 255 255 255 255 255 130 135 233
  0   0 205   4  14 211 167 170 239 196 199 245  44  52 218 238 238 252 255 255 255 164
167 239   0   0 207   7  17 211   0   0 207 100 106 228 255 255 255 255 255 255  87  93
225   0   0 205  19  29 213 200 202 245 159 162 238  63  71 221 255 255 255 255 255 255
120 126 231   0   0 207   6  17 211   0   0 208  40  67 219 164 246 246 145 218 242   0
 10 210  52  85 221 165 247 246 155 233 244 165 248 246  45  75 220   5  18 211 148 222
242 168 252 247  70 110 225   0   0 208   2  14 211   0  10 210
  0  10 210   0  10 210   3  13 211   0   0 207 149 153 236 255 255 255 255 255 255 116
122 230   0   2 209 176 179 241 255 255 255 244 245 253 251 251 254 255 255 255  93  99
226   0   0 207   4  14 211   1  11 210   0   2 209 191 193 244 255 255 255 246 247 253
 80  87 224   5  15 211 211 213 247 255 255 255 243 243 253 255 255 255 255 255 255  54
 62 219   0   0 208   4  13 211   0   7 210   9  19 212 226 227 250 255 255 255 230 231
251  46  55 218  29  38 215 240 241 252 255 255 255 242 243 253 255 255 255 241 242 253
 22  31 214   0   5 209   3  14 211   0   0 208  40  67 219 163 245 246 142 214 241   9
 23 212   2  13 210 138 208 240 162 243 246 134 203 239   0   8 210  14  30 213 145 219
242 167 250 247  69 109 225   0   0 208   2  14 211   0  10 210
  0  10 210   0  10 210   1  11 210   0   8 210   3  13 211 188 190 243 255 255 255 255
255 255 217 218 248 196 198 245 255 255 255 255 255 255 255 255 255 148 152 236   0   0
206   4  14 211   0  10 210   2  12 210   0   3 209  24  33 214 218 219 248 255 255 255
255 255 255 204 206 246 207 209 247 255 255 255 255 255 255 255 255 255 106 112 229   0
  0 206   5  14 211   0  10 210   3  13 211   0   0 208  51  59 219 242 242 253 255 255
255 255 255 255 193 196 244 220 221 249 255 255 255 255 255 255 255 255 255  65  73 222
  0   0 207   4  14 211   2  13 210   0   0 208  41  69 219 169 253 247 146 221 242  13
 29 213   0   0 207  79 124 227 182 255 250  74 117 226   0   0 207  18  36 214 149 225
243 173 255 248  71 113 226   0   0 207   3  14 211   0  10 210
  0  10 210   0  10 210   0  10 210   2  12 210   0   6 209   0   8 210 116 121 230 210
212 247 253 253 255 255 255 255 232 233 251 226 227 250 255 255 255 212 214 247  25  34
214   0   5 209   1  11 210   0  10 210   3  13 210   0   2 208  11  21 212 137 142 234
219 221 249 255 255 255 255 255 255 225 226 250 234 235 251 255 255 255 182 185 242   6
 16 211   0   9 210   1  11 210   0  10 210   3  13 211   0   0 208  29  37 215 157 161
238 228 229 250 255 255 255 255 255 255 220 222 249 244 244 253 255 255 255 147 152 236
  0   5 209   1  11 210   2  13 210   0   0 208  35  61 218 146 220 242 127 192 238  10
 25 212   0   0 208  22  42 215 133 202 239  19  37 214   0   0 208  14  30 213 129 196
238 149 225 243  62  99 224   0   0 208   2  13 210   0  10 210
  0  10 210   0  10 210   0  10 210   0  10 210   2  12 210   0  10 210   0   0 207   0
  8 210  23  32 214  32  41 216  15  24 213   8  18 211 204 206 246 211 213 247  15  25
213   0   7 209   1  11 210   0  10 210   0  10 210   3  12 210   0   7 209   0   0 207
  3  13 210  26  35 215  33  41 216   7  16 211  29  38 215 234 235 251 176 179 241   0
 10 210   0  10 210   1  11 210   0  10 210   0  10 210   3  13 211   0   3 209   0   0
207   8  17 211  28  37 215  32  41 216   0   9 210  58  66 220 253 254 255 137 142 234
  0   2 209   2  11 210   0  10 210   0  10 210   1  12 210   5  17 211   4  16 211   0
 10 210   0  10 210   0   9 210   1  11 210   0   9 210   0  10 210   0  11 210   4  16
211   5  17 211   2  13 210   0  10 210   0  10 210   0  10 210
  0  10 210   0  10 210   0  10 210   0  10 210   0  10 210   1  11 210   4  14 211   0
 10 210   0   4 209   0   2 209   0   8 210   0   1 208  13  23 212   9  18 212   0   0
208   2  12 210   0  10 210   0  10 210   0  10 210   0  10 210   1  11 210   4  14 211
  0   9 210   0   3 209   0   2 209   0   9 210   0   0 208  21  30 214   0  10 210   0
  4 209   1  11 210   0  10 210   0  10 210   0  10 210   0  10 210   2  12 210   4  14
211   0   8 210   0   3 209   0   3 209   0   9 210   0   0 208  25  34 214   0   3 209
  0   8 210   0  10 210   0  10 210   0  10 210   0   9 210   0   8 210   0   8 210   0
 10 210   0  10 210   0  11 210   0   9 210   0  11 210   0  10 210   0  10 210   0   8
210   0   8 210   0   9 210   0  10 210   0  10 210   0  10 210
  0  10 210   0  10 210   0  10 210   0  10 210   0  10 210   0  10 210   0  10 210   0
 10 210   1  11 210   2  12 210   1  11 210   2  12 210   0   7 209   0   8 210   2  12
210   0  10 210   0  10 210   0  10 210   0  10 210   0  10 210   0  10 210   0  10 210
  1  11 210   2  12 210   2  12 210   1  11 210   3  13 210   0   6 209   0   9 210   1
 11 210   0  10 210   0  10 210   0  10 210   0  10 210   0  10 210   0  10 210   0  10
210   1  11 210   2  12 210   2  12 210   1  11 210   2  12 210   0   5 209   1  11 210
  0  10 210   0  10 210   0  10 210   0  10 210   0  10 210   1  11 210   0  11 210   0
 10 210   0  10 210   0  10 210   0  11 210   0  10 210   0  10 210   0  10 210   0  11
210   1  11 210   0  10 210   0  10 210   0  10 210   0  10 210
  0  10 210   0  10 210   0  10 210   0  10 210   0  10 210   0  10 210   0  10 210   0
 10 210   0  10 210   0  10 210   0  10 210   0  10 210   1  11 210   1  11 210   0  10
210   0  10 210   0  10 210   0  10 210   0  10 210   0  10 210   0  10 210   0  10 210
  0  10 210   0  10 210   0  10 210   0  10 210   0  10 210   1  11 210   1  11 210   0
 10 210   0  10 210   0  10 210   0  10 210   0  10 210   0  10 210   0  10 210   0  10
210   0  10 210   0  10 210   0  10 210   0  10 210   0  10 210   2  11 210   0  10 210
  0  10 210   0  10 210   0  10 210   0  10 210   0  10 210   0  10 210   0  10 210   0
 10 210   0  10 210   0  10 210   0  10 210   0  10 210   0  10 210   0  10 210   0  10
210   0  10 210   0  10 210   0  10 210   0  10 210   0  10 210
  0  10 210   0  10 210   0  10 210   0  10 210   0  10 210   0  10 210   0  10 210   0
 10 210   0  10 210   0  10 210   0  10 210   0  10 210   0  10 210   0  10 210   0  10
210   0  10 210   0  10 210   0  10 210   0  10 210   0  10 210   0  10 210   0  10 210
  0  10 210   0  10 210   0  10 210   0  10 210   0  10 210   0  10 210   0  10 210   0
 10 210   0  10 210   0  10 210   0  10 210   0  10 210   0  10 210   0  10 210   0  10
210   0  10 210   0  10 210   0  10 210   0  10 210   0  10 210   0  10 210   0  10 210
  0  10 210   0  10 210   0  10 210   0  10 210   0  10 210   0  10 210   0  10 210   0
 10 210   0  10 210   0  10 210   0  10 210   0  10 210   0  10 210   0  10 210   0  10
210   0  10 210   0  10 210   0  10 210   0  10 210   0  10 210
  0   0   0   0   0   0   0   0   0   0   0   0   0   0   0   0   0   0   0   0   0   0
  0   0   0   0   0   0   0   0   0   0   0   0   0   0   0   0   0   0   0   0   0   0
  0   0   0   0   0   0   0   0   0   0   0   0   0   0   0   0   0   0   0   0   0   0
  0   0   0   0   0   0   0   0   0   0   0   0   0   0   0   0   0   0   0   0   0   0
  0   0   0   0   0   0   0   0   0   0   0   0   0   0   0   0   0   0   0   0   0   0
  0   0   0   0   0   0   0   0   0   0   0   0   0   0   0   0   0   0   0   0   0   0
  0   0   0   0   0   0   0   0   0   0   0   0   0   0   0   0   0   0   0   0   0   0
  0   0   0   0   0   0   0   0   0   0   0   0   0   0   0   0   0   0   0   0   0   0
  0   0   0   0   0   0   0   0   0   0   0   0   0   0   0   0
  0   0   0   0   0   0   0   0   0   0   0   0   0   0   0   0   0   0   0   0   0   0
  0   0   0   0   0   0   0   0   0   0   0   0   0   0   0   0   0   0   0   0   0   0
  0   0   0   0   0   0   0   0   0   0   0   0   0   0   0   0   0   0   0   0   0   0
  0   0   0   0   0   0   0   0   0   0   0   0   0   0   0   0   0   0   0   0   0   0
  0   0   0   0   0   0   0   0   0   0   0   0   0   0   0   0   0   0   0   0   0   0
  0   0   0   0   0   0   0   0   0   0   0   0   0   0   0   0   0   0   0   0   0   0
  0   0   0   0   0   0   0   0   0   0   0   0   0   0   0   0   0   0   0   0   0   0
  0   0   0   0   0   0   0   0   0   0   0   0   0   0   0   0   0   0   0   0   0   0
  0   0   0   0   0   0   0   0   0   0   0   0   0   0   0   0
  0   0   0   0   0   0   0   0   0   0   0   0   0   0   0   0   0   0   0   0   0   0
  0   0   0   0   0   0   0   0   0   0   0   0   0   0   0   0   0   0   0   0   0   0
  0   0   0   0   0   0   0   0   0   0   0   0   0   0   0   0   0   0   0   0   0   0
  0   0   0   0   0   0   0   0   0   0   0   0   0   0   0   0   0   0   0   0   0   0
  0   0   0   0   0   0   0   0   0   0   0   0   0   0   0   0   0   0   0   0   0   0
  0   0   0   0   0   0   0   0   0   0   0   0   0   0   0   0   0   0   0   0   0   0
  0   0   0   0   0   0   0   0   0   0   0   0   0   0   0   0   0   0   0   0   0   0
  0   0   0   0   0   0   0   0   0   0   0   0   0   0   0   0   0   0   0   0   0   0
  0   0   0   0   0   0   0   0   0   0   0   0   0   0   0   0
  0   0   0   0   0   0   0   0   0   0   0   0   0   0   0   0   0   0   0   0   0   0
  0   0   0   0   0   0   0   0   0   0   0   0   0   0   0   0   0   0   0   0   0   0
  0   0   0   0   0   0   0   0   0   0   0   0   0   0   0   0   0   0   0   0   0   0
  0   0   0   0   0   0   0   0   0   0   0   0   0   0   0   0   0   0   0   0   0   0
  0   0   0   0   0   0   0   0   0   0   0   0   0   0   0   0   0   0   0   0   0   0
  0   0   0   0   0   0   0   0   0   0   0   0   0   0   0   0   0   0   0   0   0   0
  0   0   0   0   0   0   0   0   0   0   0   0   0   0   0   0   0   0   0   0   0   0
  0   0   0   0   0   0   0   0   0   0   0   0   0   0   0   0   0   0   0   0   0   0
  0   0   0   0   0   0   0   0   0   0   0   0   0   0   0   0
  0   0   0   0   0   0   0   0   0   0   0   0   0   0   0   0   0   0   0   0   0   0
  0   0   0   0   0   0   0   0   0   0   0   0   0   0   0   0   0   0   0   0   0   0
  0   0   0   0   0   0   0   0   0   0   0   0   0   0   0   0   0   0   0   0   0   0
  0   0   0   0   0   0   0   0   0   0   0   0   0   0   0   0   0   0   0   0   0   0
  0   0   0   0   0   0   0   0   0   0   0   0   0   0   0   0   0   0   0   0   0   0
  0   0   0   0   0   0   0   0   0   0   0   0   0   0   0   0   0   0   0   0   0   0
  0   0   0   0   0   0   0   0   0   0   0   0   0   0   0   0   0   0   0   0   0   0
  0   0   0   0   0   0   0   0   0   0   0   0   0   0   0   0   0   0   0   0   0   0
  0   0   0   0   0   0   0   0   0   0   0   0   0   0   0   0
  0   0   0   0   0   0   0   0   0   0   0   0   0   0   0   0   0   0   0   0   0   0
  0   0   0   0   0   0   0   0   0   0   0   0   0   0   0   0   0   0   0   0   0   0
  0   0   0   0   0   0   0   0   0   0   0   0   0   0   0   0   0   0   0   0   0   0
  0   0   0   0   0   0   0   0   0   0   0   0   0   0   0   0   0   0   0   0   0   0
  0   0   0   0   0   0   0   0   0   0   0   0   0   0   0   0   0   0   0   0   0   0
  0   0   0   0   0   0   0   0   0   0   0   0   0   0   0   0   0   0   0   0   0   0
  0   0   0   0   0   0   0   0   0   0   0   0   0   0   0   0   0   0   0   0   0   0
  0   0   0   0   0   0   0   0   0   0   0   0   0   0   0   0   0   0   0   0   0   0
  0   0   0   0   0   0   0   0   0   0   0   0   0   0   0   0
