P3
# 8-bit ppm - RGB
67 32
255
  0   0   0   0   0   0   0   0   0   0   0   0   0   0   0   0   0   0   0   0   0   0
  0   0   0   0   0   0   0   0   0   0   0   0   0   0   0   0   0   0   0   0   0   0
  0   0   0   0   0   0   0   0   0   0   0   0   0   0   0   0   0   0   0   0   0   0
  0   0   0   0   0   0   0   0   0   0   0   0   0   0   0   0   0   0   0   0   0   0
  0   0   0   0   0   0   0   0   0   0   0   0   0   0   0   0   0   0   0   0   0   0
  0   0   0   0   0   0   0   0   0   0   0   0   0   0   0   0   0   0   0   0   0   0
  0   0   0   0   0   0   0   0   0   0   0   0   0   0   0   0   0   0   0   0   0   0
  0   0   0   0   0   0   0   0   0   0   0   0   0   0   0   0   0   0   0   0   0   0
  0   0   0   0   0   0   0   0   0   0   0   0   0   0   0   0   0   0   0   0   0   0
  0   0   0
  0   0   0   0   0   0   0   0   0   0   0   0   0   0   0   0   0   0   0   0   0   0
  0   0   0   0   0   0   0   0   0   0   0   0   0   0   0   0   0   0   0   0   0   0
  0   0   0   0   0   0   0   0   0   0   0   0   0   0   0   0   0   0   0   0   0   0
  0   0   0   0   0   0   0   0   0   0   0   0   0   0   0   0   0   0   0   0   0   0
  0   0   0   0   0   0   0   0   0   0   0   0   0   0   0   0   0   0   0   0   0   0
  0   0   0   0   0   0   0   0   0   0   0   0   0   0   0   0   0   0   0   0   0   0
  0   0   0   0   0   0   0   0   0   0   0   0   0   0   0   0   0   0   0   0   0   0
  0   0   0   0   0   0   0   0   0   0   0   0   0   0   0   0   0   0   0   0   0   0
  0   0   0   0   0   0   0   0   0   0   0   0   0   0   0   0   0   0   0   0   0   0
  0   0   0
  0   0   0   0   0   0   0   0   0   0   0   0   0   0   0   0   0   0   0   0   0   0
  0   0   0   0   0   0   0   0   0   0   0   0   0   0   0   0   0   0   0   0   0   0
  0   0   0   0   0   0   0   0   0   0   0   0   0   0   0   0   0   0   0   0   0   0
  0   0   0   0   0   0   0   0   0   0   0   0   0   0   0   0   0   0   0   0   0   0
  0   0   0   0   0   0   0   0   0   0   0   0   0   0   0   0   0   0   0   0   0   0
  0   0   0   0   0   0   0   0   0   0   0   0   0   0   0   0   0   0   0   0   0   0
  0   0   0   0   0   0   0   0   0   0   0   0   0   0   0   0   0   0   0   0   0   0
  0   0   0   0   0   0   0   0   0   0   0   0   0   0   0   0   0   0   0   0   0   0
  0   0   0   0   0   0   0   0   0   0   0   0   0   0   0   0   0   0   0   0   0   0
  0   0   0
  0   0   0   0   0   0   0   0   0   0   0   0   0   0   0   0   0   0   0   0   0   0
  0   0   0   0   0   0   0   0   0   0   0   0   0   0   0   0   0   0   0   0   0   0
  0   0   0   0   0   0   0   0   0   0   0   0   0   0   0   0   0   0   0   0   0   0
  0   0   0   0   0   0   0   0   0   0   0   0   0   0   0   0   0   0   0   0   0   0
  0   0   0   0   0   0   0   0   0   0   0   0   0   0   0   0   0   0   0   0   0   0
  0   0   0   0   0   0   0   0   0   0   0   0   0   0   0   0   0   0   0   0   0   0
  0   0   0   0   0   0   0   0   0   0   0   0   0   0   0   0   0   0   0   0   0   0
  0   0   0   0   0   0   0   0   0   0   0   0   0   0   0   0   0   0   0   0   0   0
  0   0   0   0   0   0   0   0   0   0   0   0   0   0   0   0   0   0   0   0   0   0
  0   0   0
  0   0   0   0   0   0   0   0   0   0   0   0   0   0   0   0   0   0   0   0   0   0
  0   0   0   0   0   0   0   0   0   0   0   0   0   0   0   0   0   0   0   0   0   0
  0   0   0   0   0   0   0   0   0   0   0   0   0   0   0   0   0   0   0   0   0   0
  0   0   0   0   0   0   0   0   0   0   0   0   0   0   0   0   0   0   0   0   0   0
  0   0   0   0   0   0   0   0   0   0   0   0   0   0   0   0   0   0   0   0   0   0
  0   0   0   0   0   0   0   0   0   0   0   0   0   0   0   0   0   0   0   0   0   0
  0   0   0   0   0   0   0   0   0   0   0   0   0   0   0   0   0   0   0   0   0   0
  0   0   0   0   0   0   0   0   0   0   0   0   0   0   0   0   0   0   0   0   0   0
  0   0   0   0   0   0   0   0   0   0   0   0   0   0   0   0   0   0   0   0   0   0
  0   0   0
  0   0   0   0   0   0   0   0   0   0   0   0   0   0   0   0   0   0   0   0   0   0
  0   0   0   0   0   0   0   0   0   0   0   0   0   0   0   0   0   0   0   0   0   0
  0   0   0   0   0   0   0   0   0   0   0   0   0   0   0   0   0   0   0   0   0   0
  0   0   0   0   0   0   0   0   0   0   0   0   0   0   0   0   0   0   0   0   0   0
  0   0   0   0   0   0   0   0   0   0   0   0   0   0   0   0   0   0   0   0   0   0
  0   0   0   0   0   0   0   0   0   0   0   0   0   0   0   0   0   0   0   0   0   0
  0   0   0   0   0   0   0   0   0   0   0   0   0   0   0   0   0   0   0   0   0   0
  0   0   0   0   0   0   0   0   0   0   0   0   0   0   0   0   0   0   0   0   0   0
  0   0   0   0   0   0   0   0   0   0   0   0   0   0   0   0   0   0   0   0   0   0
  0   0   0
  0   0   0   0   0   0   0   0   0   0   0   0   0   0   0   0   0   0   0   0   0   0
  0   0   0   0   0   0   0   0   0   0   0   0   0   0   0   0   0   0   0   0   0   0
  0   0   0   0   0   0   0   0   0   0   0   0   0   0   0   0   0   0   0   0   0   0
  0   0   0   0   0   0   0   0   0   0   0   0   0   0   0   0   0   0   0   0   0   0
  0   0   0   0   0   0   0   0   0   0   0   0   0   0   0   0   0   0   0   0   0   0
  0   0   0   0   0   0   0   0   0   0   0   0   0   0   0   0   0   0   0   0   0   0
  0   0   0   0   0   0   0   0   0   0   0   0   0   0   0   0   0   0   0   0   0   0
  0   0   0   0   0   0   0   0   0   0   0   0   0   0   0   0   0   0   0   0   0   0
  0   0   0   0   0   0   0   0   0   0   0   0   0   0   0   0   0   0   0   0   0   0
  0   0   0
  0   0   0   0   0   0   0   0   0   0   0   0   0   0   0   0   0   0   0   0   0   0
  0   0   0   0   0   0   0   0   0   0   0   0   0   0   0   0   0   0   0   0   0   0
  0   0   0   0   0   0   0   0   0   0   0   0   0   0   0   0   0   0   0   0   0   0
  0   0   0   0   0   0   0   0   0   0   0   0   0   0   0   0   0   0   0   0   0   0
  0   0   0   0   0   0   0   0   0   0   0   0   0   0   0   0   0   0   0   0   0   0
  0   0   0   0   0   0   0   0   0   0   0   0   0   0   0   0   0   0   0   0   0   0
  0   0   0   0   0   0   0   0   0   0   0   0   0   0   0   0   0   0   0   0   0   0
  0   0   0   0   0   0   0   0   0   0   0   0   0   0   0   0   0   0   0   0   0   0
  0   0   0   0   0   0   0   0   0   0   0   0   0   0   0   0   0   0   0   0   0   0
  0   0   0
  0   0   0   0   0   0   0   0   0   0   0   0   0   0   0   0   0   0   0   0   0   0
  0   0   0   0   0   0   0   0   0   0   0   0   0   0   0   0   0   0   0   0   0   0
  0   0   0   0   0   0   0   0   0   0   0   0   0   0   0   0   0   0   0   0   0   0
  0   0   0   0   0   0   0   0   0   0   0   0   0   0   0   0   0   0   0   0   0   0
  0   0   0   0   0   0   0   0   0   0   0   0   0   0   0   0   0   0   0   0   0   0
  0   0   0   0   0   0   0   0   0   0   0   0   0   0   0   0   0   0   0   0   0   0
  0   0   0   0   0   0   0   0   0   0   0   0   0   0   0   0   0   0   0   0   0   0
  0   0   0   0   0   0   0   0   0   0   0   0   0   0   0   0   0   0   0   0   0   0
  0   0   0   0   0   0   0   0   0   0   0   0   0   0   0   0   0   0   0   0   0   0
  0   0   0
  0   0   0   0   0   0   0   0   0  19  19  19  59  59  59  67  67  67  39  39  39   7
  7   7  23  23  23   5   5   5   0   0   0   0   0   0   0   0   0   0   0   0   0   0
  0  11  11  11  53  53  53  66  66  66  30  30  30   1   1   1   0   0   0   0   0   0
  0   0   0   0   0   0   7   7   7  27  27  27  28  28  28  26  26  26  29  29  29  30
 30  30  21  21  21   6   6   6   0   0   0   0   0   0   0   0   0   0   0   0   0   0
  0   0   0   0   0   0   0   0   0   0   0   0   0   1   1   1  12  12  12  27  27  27
 26  26  26  27  27  27  24  24  24   3   3   3   0   0   0   0   0   0   0   0   0  26
 26  26  61  61  61  41  41  41   3   3   3   0   0   0   0   0   0   0   0   0   0   0
  0   0   0   0  27  27  27  61  61  61  41  41  41   4   4   4   0   0   0   0   0   0
  0   0   0
  0   0   0   0   0   0  58  58  58 171 171 171 140 140 140 119 119 119 151 151 151 162
162 162 152 152 152  14  14  14   0   0   0   0   0   0   0   0   0   0   0   0  28  28
 28 157 157 157 146 146 146 116 116 116 169 169 169  55  55  55   0   0   0   0   0   0
  0   0   0   0   0   0  13  13  13  70  70  70 170 170 170 219 219 219 178 178 178 149
149 149 172 172 172 167 167 167  74  74  74   4   4   4   0   0   0   0   0   0   0   0
  0   0   0   0   0   0   0   0   0   0   0   0   0   3   3   3 132 132 132 223 223 223
221 221 221 224 224 224 142 142 142   5   5   5   0   0   0   0   0   0  72  72  72 158
158 158 105 105 105 142 142 142 109 109 109   6   6   6   0   0   0   0   0   0   0   0
  0  73  73  73 158 158 158 105 105 105 144 144 144 109 109 109   6   6   6   0   0   0
  0   0   0
  0   0   0  24  24  24 194 194 194 114 114 114   2   2   2   0   0   0  14  14  14 130
130 130 194 194 194  13  13  13   0   0   0   0   0   0   0   0   0   0   0   0 135 135
135 202 202 202  21  21  21   0   0   0 123 123 123 147 147 147   0   0   0   0   0   0
  0   0   0   0   0   0   0   0   0   0   0   0 121 121 121 254 254 254  91  91  91   8
  8   8  41  41  41 184 184 184 238 238 238  88  88  88   0   0   0   0   0   0   0   0
  0   0   0   0   0   0   0   0   0   0   0   0   0  45  45  45 168 168 168 140 140 140
140 140 140 140 140 140  60  60  60   0   0   0   0   0   0  45  45  45 204 204 204  80
 80  80   0   0   0  31  31  31 197 197 197  91  91  91   0   0   0   0   0   0  46  46
 46 205 205 205  79  79  79   0   0   0  33  33  33 199 199 199  90  90  90   0   0   0
  0   0   0
  0   0   0  70  70  70 234 234 234  62  62  62   0   0   0   0   0   0   0   0   0  20
 20  20 140 140 140  16  16  16   0   0   0   0   0   0   0   0   0   7   7   7 186 186
186 191 191 191   9   9   9   0   0   0 127 127 127 143 143 143   0   0   0   0   0   0
  0   0   0   0   0   0   0   0   0   0   0   0 108 108 108 251 251 251  78  78  78   0
  0   0   0   0   0  72  72  72 248 248 248 191 191 191  12  12  12   0   0   0   0   0
  0   0   0   0   0   0   0   0   0   0   2   2   2 124 124 124  74  74  74   0   0   0
  0   0   0   0   0   0   0   0   0   0   0   0   1   1   1 144 144 144 204 204 204  17
 17  17   0   0   0   0   0   0 149 149 149 199 199 199  19  19  19   0   0   0 145 145
145 204 204 204  17  17  17   0   0   0   0   0   0 150 150 150 198 198 198  17  17  17
  0   0   0
  0   0   0  63  63  63 244 244 244 166 166 166  27  27  27   0   0   0   0   0   0   2
  2   2  74  74  74  14  14  14   0   0   0   0   0   0   0   0   0   3   3   3 169 169
169 231 231 231  44  44  44  62  62  62 173 173 173  54  54  54   1   1   1   2   2   2
  4   4   4   3   3   3   0   0   0   0   0   0 108 108 108 251 251 251  78  78  78   0
  0   0   0   0   0  41  41  41 234 234 234 215 215 215  23  23  23   0   0   0   0   0
  0   0   0   0   0   0   0   0   0   0  44  44  44 217 217 217 183 183 183 109 109 109
 31  31  31   0   0   0   0   0   0   0   0   0  23  23  23 213 213 213 170 170 170   3
  3   3   0   0   0   0   0   0 104 104 104 243 243 243  62  62  62  21  21  21 214 214
214 169 169 169   3   3   3   0   0   0   0   0   0 105 105 105 241 241 241  61  61  61
  0   0   0
  0   0   0  16  16  16 179 179 179 255 255 255 195 195 195  77  77  77   8   8   8   0
  0   0   6   6   6   2   2   2   0   0   0   0   0   0   0   0   0   0   0   0 105 105
105 251 251 251 178 178 178 136 136 136  48  48  48  19  19  19 129 129 129 168 168 168
126 126 126  43  43  43   0   0   0   0   0   0 108 108 108 251 251 251  77  77  77   0
  0   0   0   0   0  72  72  72 248 248 248 181 181 181   9   9   9   0   0   0   0   0
  0   0   0   0   0   0   0   0   0   0  76  76  76 191 191 191 226 226 226 251 251 251
207 207 207  69  69  69   0   0   0   0   0   0  49  49  49 240 240 240 146 146 146   0
  0   0   0   0   0   0   0   0  81  81  81 250 250 250  97  97  97  47  47  47 242 242
242 145 145 145   0   0   0   0   0   0   0   0   0  83  83  83 250 250 250  98  98  98
  0   0   0
  0   0   0   0   0   0  39  39  39 173 173 173 251 251 251 243 243 243 165 165 165  54
 54  54   2   2   2   0   0   0   0   0   0   0   0   0   0   0   0  18  18  18 123 123
123 241 241 241 229 229 229  48  48  48   0   0   0   0   0   0 119 119 119 214 214 214
 48  48  48   3   3   3   1   1   1   0   0   0 108 108 108 252 252 252 103 103 103  24
 24  24  56  56  56 191 191 191 226 226 226  73  73  73   0   0   0   0   0   0   0   0
  0   0   0   0   0   0   0   0   0   0   4   4   4  11  11  11  36  36  36 116 116 116
231 231 231 217 217 217  44  44  44   0   0   0  65  65  65 248 248 248 131 131 131   0
  0   0   0   0   0   0   0   0  74  74  74 251 251 251 115 115 115  64  64  64 249 249
249 130 130 130   0   0   0   0   0   0   0   0   0  76  76  76 251 251 251 117 117 117
  0   0   0
  0   0   0   0   0   0   0   0   0  15  15  15 104 104 104 211 211 211 255 255 255 229
229 229 107 107 107   5   5   5   0   0   0   0   0   0  42  42  42 164 164 164 111 111
111 131 131 131 254 254 254 143 143 143   4   4   4   0   0   0 126 126 126  98  98  98
  0   0   0   0   0   0   0   0   0   0   0   0 108 108 108 253 253 253 146 146 146 110
110 110 141 141 141 133 133 133  52  52  52   1   1   1   0   0   0   0   0   0   0   0
  0   0   0   0   0   0   0   0   0   0   0   0   0   0   0   0   0   0   0   0   0   0
 80  80  80 237 237 237 133 133 133   0   0   0  67  67  67 249 249 249 127 127 127   0
  0   0   0   0   0   0   0   0  77  77  77 251 251 251 114 114 114  65  65  65 249 249
249 126 126 126   0   0   0   0   0   0   0   0   0  78  78  78 252 252 252 116 116 116
  0   0   0
  0   0   0   2   2   2   2   2   2   0   0   0   0   0   0  33  33  33 137 137 137 239
239 239 239 239 239  73  73  73   0   0   0  28  28  28 192 192 192 138 138 138   2   2
  2  28  28  28 206 206 206 239 239 239  70  70  70  38  38  38 137 137 137  16  16  16
  0   0   0   0   0   0   0   0   0   0   0   0 108 108 108 251 251 251  78  78  78   0
  0   0   4   4   4   0   0   0   0   0   0   0   0   0   0   0   0   0   0   0   0   0
  0   0   0   0   0   0   0   0   0   0   0   0   0   0   0   0   0   0   0   0   0   0
  3   3   3 160 160 160 176 176 176   1   1   1  52  52  52 242 242 242 136 136 136   0
  0   0   0   0   0   0   0   0  86  86  86 251 251 251  96  96  96  50  50  50 243 243
243 136 136 136   0   0   0   0   0   0   0   0   0  88  88  88 252 252 252  97  97  97
  0   0   0
  0   0   0  39  39  39  50  50  50   0   0   0   0   0   0   0   0   0   2   2   2 107
107 107 250 250 250 144 144 144   0   0   0 116 116 116 242 242 242  59  59  59   0   0
  0   0   0   0  86  86  86 243 243 243 202 202 202 145 145 145  56  56  56   0   0   0
  0   0   0   0   0   0   0   0   0   0   0   0 108 108 108 251 251 251  78  78  78   0
  0   0   0   0   0   0   0   0   0   0   0   0   0   0   0   0   0   0   0   0   0   0
  0   0   0   0   0   0   0   0   0   0   0   0   0   0   0   0   0   0   0   0   0   0
  0   0   0 113 113 113 161 161 161   0   0   0  25  25  25 217 217 217 160 160 160   1
  1   1   0   0   0   0   0   0 108 108 108 243 243 243  60  60  60  23  23  23 219 219
219 159 159 159   1   1   1   0   0   0   0   0   0 110 110 110 242 242 242  59  59  59
  0   0   0
  0   0   0  59  59  59 119 119 119   0   0   0   0   0   0   0   0   0   0   0   0  27
 27  27 223 223 223 145 145 145   2   2   2 167 167 167 249 249 249  70  70  70   0   0
  0   0   0   0   5   5   5 145 145 145 255 255 255 189 189 189  21  21  21   0   0   0
  0   0   0  23  23  23  13  13  13   0   0   0 108 108 108 251 251 251  78  78  78   0
  0   0   0   0   0   0   0   0   0   0   0   0   0   0   0   0   0   0   0   0   0   0
  0   0   0   0   0   0   0   0   0   0   0   0   0   0   0   0   0   0   0   0   0   0
  0   0   0 134 134 134  95  95  95   0   0   0   2   2   2 155 155 155 200 200 200  14
 14  14   0   0   0   0   0   0 151 151 151 200 200 200  18  18  18   1   1   1 155 155
155 199 199 199  14  14  14   0   0   0   0   0   0 152 152 152 199 199 199  17  17  17
  0   0   0
  0   0   0  58  58  58 210 210 210  68  68  68   1   1   1   0   0   0   0   0   0  72
 72  72 220 220 220  72  72  72   0   0   0 132 132 132 255 255 255 175 175 175  32  32
 32  10  10  10  47  47  47 148 148 148 205 205 205 249 249 249 170 170 170  63  63  63
 57  57  57 119 119 119  21  21  21   0   0   0 117 117 117 255 255 255  88  88  88   0
  0   0   0   0   0   0   0   0   0   0   0   0   0   0   0   0   0   0   0   0   0   0
  0   0   0   0   0   0   0  12  12  12 108 108 108  77  77  77  11  11  11   9   9   9
 77  77  77 133 133 133  15  15  15   0   0   0   0   0   0  55  55  55 209 209 209  66
 66  66   0   0   0  30  30  30 200 200 200  95  95  95   0   0   0   0   0   0  55  55
 55 209 209 209  64  64  64   0   0   0  32  32  32 200 200 200  96  96  96   0   0   0
  0   0   0
  0   0   0  55  55  55 179 179 179 164 164 164 127 127 127 100 100 100 121 121 121 180
180 180 104 104 104   5   5   5   0   0   0  32  32  32 175 175 175 242 242 242 210 210
210 177 177 177 165 165 165  76  76  76  31  31  31 156 156 156 239 239 239 238 238 238
205 205 205  81  81  81  11  11  11  61  61  61 172 172 172 232 232 232 155 155 155  53
 53  53   7   7   7   0   0   0   0   0   0   0   0   0   0   0   0   0   0   0   0   0
  0   0   0   0   0   0   0  17  17  17 178 178 178 231 231 231 173 173 173 145 145 145
114 114 114  23  23  23   0   0   0   0   0   0   0   0   0   1   1   1  91  91  91 158
158 158  89  89  89 139 139 139 115 115 115   9   9   9   0   0   0   0   0   0   1   1
  1  91  91  91 156 156 156  90  90  90 141 141 141 113 113 113   8   8   8   0   0   0
  0   0   0
  0   0   0  18  18  18  22  22  22  14  14  14  54  54  54  83  83  83  80  80  80  36
 36  36   1   1   1   0   0   0   0   0   0   0   0   0  15  15  15  64  64  64  87  87
 87  67  67  67  21  21  21   0   0   0   0   0   0   9   9   9  57  57  57  83  83  83
 43  43  43   1   1   1   7   7   7  32  32  32  37  37  37  36  36  36  38  38  38  29
 29  29   4   4   4   0   0   0   0   0   0   0   0   0   0   0   0   0   0   0   0   0
  0   0   0   0   0   0   0   0   0   0  23  23  23  65  65  65  69  69  69  37  37  37
  4   4   4   0   0   0   0   0   0   0   0   0   0   0   0   0   0   0   1   1   1  36
 36  36  66  66  66  41  41  41   3   3   3   1   1   1   0   0   0   0   0   0   0   0
  0   1   1   1  36  36  36  66  66  66  40  40  40   3   3   3   0   0   0   0   0   0
  0   0   0
  0   0   0   0   0   0   0   0   0   0   0   0   0   0   0   0   0   0   0   0   0   0
  0   0   0   0   0   0   0   0   0   0   0   0   0   0   0   0   0   0   0   0   0   0
  0   0   0   0   0   0   0   0   0   0   0   0   0   0   0   0   0   0   0   0   0   0
  0   0   0   0   0   0   0   0   0   0   0   0   0   0   0   0   0   0   0   0   0   0
  0   0   0   0   0   0   0   0   0   0   0   0   0   0   0   0   0   0   0   0   0   0
  0   0   0   0   0   0   0   0   0   0   0   0   0   0   0   0   0   0   0   0   0   0
  0   0   0   0   0   0   0   0   0   0   0   0   0   0   0   0   0   0   0   0   0   0
  0   0   0   0   0   0   0   0   0   0   0   0   0   0   0   0   0   0   0   0   0   0
  0   0   0   0   0   0   0   0   0   0   0   0   0   0   0   0   0   0   0   0   0   0
  0   0   0
  0   0   0   0   0   0   0   0   0   0   0   0   0   0   0   0   0   0   0   0   0   0
  0   0   0   0   0   0   0   0   0   0   0   0   0   0   0   0   0   0   0   0   0   0
  0   0   0   0   0   0   0   0   0   0   0   0   0   0   0   0   0   0   0   0   0   0
  0   0   0   0   0   0   0   0   0   0   0   0   0   0   0   0   0   0   0   0   0   0
  0   0   0   0   0   0   0   0   0   0   0   0   0   0   0   0   0   0   0   0   0   0
  0   0   0   0   0   0   0   0   0   0   0   0   0   0   0   0   0   0   0   0   0   0
  0   0   0   0   0   0   0   0   0   0   0   0   0   0   0   0   0   0   0   0   0   0
  0   0   0   0   0   0   0   0   0   0   0   0   0   0   0   0   0   0   0   0   0   0
  0   0   0   0   0   0   0   0   0   0   0   0   0   0   0   0   0   0   0   0   0   0
  0   0   0
  0   0   0   0   0   0   0   0   0   0   0   0   0   0   0   0   0   0   0   0   0   0
  0   0   0   0   0   0   0   0   0   0   0   0   0   0   0   0   0   0   0   0   0   0
  0   0   0   0   0   0   0   0   0   0   0   0   0   0   0   0   0   0   0   0   0   0
  0   0   0   0   0   0   0   0   0   0   0   0   0   0   0   0   0   0   0   0   0   0
  0   0   0   0   0   0   0   0   0   0   0   0   0   0   0   0   0   0   0   0   0   0
  0   0   0   0   0   0   0   0   0   0   0   0   0   0   0   0   0   0   0   0   0   0
  0   0   0   0   0   0   0   0   0   0   0   0   0   0   0   0   0   0   0   0   0   0
  0   0   0   0   0   0   0   0   0   0   0   0   0   0   0   0   0   0   0   0   0   0
  0   0   0   0   0   0   0   0   0   0   0   0   0   0   0   0   0   0   0   0   0   0
  0   0   0
  0   0   0   0   0   0   0   0   0   0   0   0   0   0   0   0   0   0   0   0   0   0
  0   0   0   0   0   0   0   0   0   0   0   0   0   0   0   0   0   0   0   0   0   0
  0   0   0   0   0   0   0   0   0   0   0   0   0   0   0   0   0   0   0   0   0   0
  0   0   0   0   0   0   0   0   0   0   0   0   0   0   0   0   0   0   0   0   0   0
  0   0   0   0   0   0   0   0   0   0   0   0   0   0   0   0   0   0   0   0   0   0
  0   0   0   0   0   0   0   0   0   0   0   0   0   0   0   0   0   0   0   0   0   0
  0   0   0   0   0   0   0   0   0   0   0   0   0   0   0   0   0   0   0   0   0   0
  0   0   0   0   0   0   0   0   0   0   0   0   0   0   0   0   0   0   0   0   0   0
  0   0   0   0   0   0   0   0   0   0   0   0   0   0   0   0   0   0   0   0   0   0
  0   0   0
  0   0   0   0   0   0   0   0   0   0   0   0   0   0   0   0   0   0   0   0   0   0
  0   0   0   0   0   0   0   0   0   0   0   0   0   0   0   0   0   0   0   0   0   0
  0   0   0   0   0   0   0   0   0   0   0   0   0   0   0   0   0   0   0   0   0   0
  0   0   0   0   0   0   0   0   0   0   0   0   0   0   0   0   0   0   0   0   0   0
  0   0   0   0   0   0   0   0   0   0   0   0   0   0   0   0   0   0   0   0   0   0
  0   0   0   0   0   0   0   0   0   0   0   0   0   0   0   0   0   0   0   0   0   0
  0   0   0   0   0   0   0   0   0   0   0   0   0   0   0   0   0   0   0   0   0   0
  0   0   0   0   0   0   0   0   0   0   0   0   0   0   0   0   0   0   0   0   0   0
  0   0   0   0   0   0   0   0   0   0   0   0   0   0   0   0   0   0   0   0   0   0
  0   0   0
  0   0   0   0   0   0   0   0   0   0   0   0   0   0   0   0   0   0   0   0   0   0
  0   0   0   0   0   0   0   0   0   0   0   0   0   0   0   0   0   0   0   0   0   0
  0   0   0   0   0   0   0   0   0   0   0   0   0   0   0   0   0   0   0   0   0   0
  0   0   0   0   0   0   0   0   0   0   0   0   0   0   0   0   0   0   0   0   0   0
  0   0   0   0   0   0   0   0   0   0   0   0   0   0   0   0   0   0   0   0   0   0
  0   0   0   0   0   0   0   0   0   0   0   0   0   0   0   0   0   0   0   0   0   0
  0   0   0   0   0   0   0   0   0   0   0   0   0   0   0   0   0   0   0   0   0   0
  0   0   0   0   0   0   0   0   0   0   0   0   0   0   0   0   0   0   0   0   0   0
  0   0   0   0   0   0   0   0   0   0   0   0   0   0   0   0   0   0   0   0   0   0
  0   0   0
  0   0   0   0   0   0   0   0   0   0   0   0   0   0   0   0   0   0   0   0   0   0
  0   0   0   0   0   0   0   0   0   0   0   0   0   0   0   0   0   0   0   0   0   0
  0   0   0   0   0   0   0   0   0   0   0   0   0   0   0   0   0   0   0   0   0   0
  0   0   0   0   0   0   0   0   0   0   0   0   0   0   0   0   0   0   0   0   0   0
  0   0   0   0   0   0   0   0   0   0   0   0   0   0   0   0   0   0   0   0   0   0
  0   0   0   0   0   0   0   0   0   0   0   0   0   0   0   0   0   0   0   0   0   0
  0   0   0   0   0   0   0   0   0   0   0   0   0   0   0   0   0   0   0   0   0   0
  0   0   0   0   0   0   0   0   0   0   0   0   0   0   0   0   0   0   0   0   0   0
  0   0   0   0   0   0   0   0   0   0   0   0   0   0   0   0   0   0   0   0   0   0
  0   0   0
  0   0   0   0   0   0   0   0   0   0   0   0   0   0   0   0   0   0   0   0   0   0
  0   0   0   0   0   0   0   0   0   0   0   0   0   0   0   0   0   0   0   0   0   0
  0   0   0   0   0   0   0   0   0   0   0   0   0   0   0   0   0   0   0   0   0   0
  0   0   0   0   0   0   0   0   0   0   0   0   0   0   0   0   0   0   0   0   0   0
  0   0   0   0   0   0   0   0   0   0   0   0   0   0   0   0   0   0   0   0   0   0
  0   0   0   0   0   0   0   0   0   0   0   0   0   0   0   0   0   0   0   0   0   0
  0   0   0   0   0   0   0   0   0   0   0   0   0   0   0   0   0   0   0   0   0   0
  0   0   0   0   0   0   0   0   0   0   0   0   0   0   0   0   0   0   0   0   0   0
  0   0   0   0   0   0   0   0   0   0   0   0   0   0   0   0   0   0   0   0   0   0
  0   0   0
  0   0   0   0   0   0   0   0   0   0   0   0   0   0   0   0   0   0   0   0   0   0
  0   0   0   0   0   0   0   0   0   0   0   0   0   0   0   0   0   0   0   0   0   0
  0   0   0   0   0   0   0   0   0   0   0   0   0   0   0   0   0   0   0   0   0   0
  0   0   0   0   0   0   0   0   0   0   0   0   0   0   0   0   0   0   0   0   0   0
  0   0   0   0   0   0   0   0   0   0   0   0   0   0   0   0   0   0   0   0   0   0
  0   0   0   0   0   0   0   0   0   0   0   0   0   0   0   0   0   0   0   0   0   0
  0   0   0   0   0   0   0   0   0   0   0   0   0   0   0   0   0   0   0   0   0   0
  0   0   0   0   0   0   0   0   0   0   0   0   0   0   0   0   0   0   0   0   0   0
  0   0   0   0   0   0   0   0   0   0   0   0   0   0   0   0   0   0   0   0   0   0
  0   0   0
