P3
# 8-bit ppm - RGB
91 32
255
  0   0   0   0   0   0   0   0   0   0   0   0   0   0   0   0   0   0   0   0   0   0
  0   0   0   0   0   0   0   0   0   0   0   0   0   0   0   0   0   0   0   0   0   0
  0   0   0   0   0   0   0   0   0   0   0   0   0   0   0   0   0   0   0   0   0   0
  0   0   0   0   0   0   0   0   0   0   0   0   0   0   0   0   0   0   0   0   0   0
  0   0   0   0   0   0   0   0   0   0   0   0   0   0   0   0   0   0   0   0   0   0
  0   0   0   0   0   0   0   0   0   0   0   0   0   0   0   0   0   0   0   0   0   0
  0   0   0   0   0   0   0   0   0   0   0   0   0   0   0   0   0   0   0   0   0   0
  0   0   0   0   0   0   0   0   0   0   0   0   0   0   0   0   0   0   0   0   0   0
  0   0   0   0   0   0   0   0   0   0   0   0   0   0   0   0   0   0   0   0   0   0
  0   0   0   0   0   0   0   0   0   0   0   0   0   0   0   0   0   0   0   0   0   0
  0   0   0   0   0   0   0   0   0   0   0   0   0   0   0   0   0   0   0   0   0   0
  0   0   0   0   0   0   0   0   0   0   0   0   0   0   0   0   0   0   0   0   0   0
  0   0   0   0   0   0   0   0   0
  0   0   0   0   0   0   0   0   0   0   0   0   0   0   0   0   0   0   0   0   0   0
  0   0   0   0   0   0   0   0   0   0   0   0   0   0   0   0   0   0   0   0   0   0
  0   0   0   0   0   0   0   0   0   0   0   0   0   0   0   0   0   0   0   0   0   0
  0   0   0   0   0   0   0   0   0   0   0   0   0   0   0   0   0   0   0   0   0   0
  0   0   0   0   0   0   0   0   0   0   0   0   0   0   0   0   0   0   0   0   0   0
  0   0   0   0   0   0   0   0   0   0   0   0   0   0   0   0   0   0   0   0   0   0
  0   0   0   0   0   0   0   0   0   0   0   0   0   0   0   0   0   0   0   0   0   0
  0   0   0   0   0   0   0   0   0   0   0   0   0   0   0   0   0   0   0   0   0   0
  0   0   0   0   0   0   0   0   0   0   0   0   0   0   0   0   0   0   0   0   0   0
  0   0   0   0   0   0   0   0   0   0   0   0   0   0   0   0   0   0   0   0   0   0
  0   0   0   0   0   0   0   0   0   0   0   0   0   0   0   0   0   0   0   0   0   0
  0   0   0   0   0   0   0   0   0   0   0   0   0   0   0   0   0   0   0   0   0   0
  0   0   0   0   0   0   0   0   0
  0   0   0   0   0   0   0   0   0   0   0   0   0   0   0   0   0   0   0   0   0   0
  0   0   0   0   0   0   0   0   0   0   0   0   0   0   0   0   0   0   0   0   0   0
  0   0   0   0   0   0   0   0   0   0   0   0   0   0   0   0   0   0   0   0   0   0
  0   0   0   0   0   0   0   0   0   0   0   0   0   0   0   0   0   0   0   0   0   0
  0   0   0   0   0   0   0   0   0   0   0   0   0   0   0   0   0   0   0   0   0   0
  0   0   0   0   0   0   0   0   0   0   0   0   0   0   0   0   0   0   0   0   0   0
  0   0   0   0   0   0   0   0   0   0   0   0   0   0   0   0   0   0   0   0   0   0
  0   0   0   0   0   0   0   0   0   0   0   0   0   0   0   0   0   0   0   0   0   0
  0   0   0   0   0   0   0   0   0   0   0   0   0   0   0   0   0   0   0   0   0   0
  0   0   0   0   0   0   0   0   0   0   0   0   0   0   0   0   0   0   0   0   0   0
  0   0   0   0   0   0   0   0   0   0   0   0   0   0   0   0   0   0   0   0   0   0
  0   0   0   0   0   0   0   0   0   0   0   0   0   0   0   0   0   0   0   0   0   0
  0   0   0   0   0   0   0   0   0
  0   0   0   0   0   0   0   0   0   0   0   0   0   0   0   0   0   0   0   0   0   0
  0   0   0   0   0   0   0   0   0   0   0   0   0   0   0   0   0   0   0   0   0   0
  0   0   0   0   0   0   0   0   0   0   0   0   0   0   0   0   0   0   0   0   0   0
  0   0   0   0   0   0   0   0   0   0   0   0   0   0   0   0   0   0   0   0   0   0
  0   0   0   0   0   0   0   0   0   0   0   0   0   0   0   0   0   0   0   0   0   0
  0   0   0   0   0   0   0   0   0   0   0   0   0   0   0   0   0   0   0   0   0   0
  0   0   0   0   0   0   0   0   0   0   0   0   0   0   0   0   0   0   0   0   0   0
  0   0   0   0   0   0   0   0   0   0   0   0   0   0   0   0   0   0   0   0   0   0
  0   0   0   0   0   0   0   0   0   0   0   0   0   0   0   0   0   0   0   0   0   0
  0   0   0   0   0   0   0   0   0   0   0   0   0   0   0   0   0   0   0   0   0   0
  0   0   0   0   0   0   0   0   0   0   0   0   0   0   0   0   0   0   0   0   0   0
  0   0   0   0   0   0   0   0   0   0   0   0   0   0   0   0   0   0   0   0   0   0
  0   0   0   0   0   0   0   0   0
  0   0   0   0   0   0   0   0   0   0   0   0   0   0   0   0   0   0   0   0   0   0
  0   0   0   0   0   0   0   0   0   0   0   0   0   0   0   0   0   0   0   0   0   0
  0   0   0   0   0   0   0   0   0   0   0   0   0   0   0   0   0   0   0   0   0   0
  0   0   0   0   0   0   0   0   0   0   0   0   0   0   0   0   0   0   0   0   0   0
  0   0   0   0   0   0   0   0   0   0   0   0   0   0   0   0   0   0   0   0   0   0
  0   0   0   0   0   0   0   0   0   0   0   0   0   0   0   0   0   0   0   0   0   0
  0   0   0   0   0   0   0   0   0   0   0   0   0   0   0   0   0   0   0   0   0   0
  0   0   0   0   0   0   0   0   0   0   0   0   0   0   0   0   0   0   0   0   0   0
  0   0   0   0   0   0   0   0   0   0   0   0   0   0   0   0   0   0   0   0   0   0
  0   0   0   0   0   0   0   0   0   0   0   0   0   0   0   0   0   0   0   0   0   0
  0   0   0   0   0   0   0   0   0   0   0   0   0   0   0   0   0   0   0   0   0   0
  0   0   0   0   0   0   0   0   0   0   0   0   0   0   0   0   0   0   0   0   0   0
  0   0   0   0   0   0   0   0   0
  0   0   0   0   0   0   0   0   0   0   0   0   0   0   0   0   0   0   0   0   0   0
  0   0   0   0   0   0   0   0   0   0   0   0   0   0   0   0   0   0   0   0   0   0
  0   0   0   0   0   0   0   0   0   0   0   0   0   0   0   0   0   0   0   0   0   0
  0   0   0   0   0   0   0   0   0   0   0   0   0   0   0   0   0   0   0   0   0   0
  0   0   0   0   0   0   0   0   0   0   0   0   0   0   0   0   0   0   0   0   0   0
  0   0   0   0   0   0   0   0   0   0   0   0   0   0   0   0   0   0   0   0   0   0
  0   0   0   0   0   0   0   0   0   0   0   0   0   0   0   0   0   0   0   0   0   0
  0   0   0   0   0   0   0   0   0   0   0   0   0   0   0   0   0   0   0   0   0   0
  0   0   0   0   0   0   0   0   0   0   0   0   0   0   0   0   0   0   0   0   0   0
  0   0   0   0   0   0   0   0   0   0   0   0   0   0   0   0   0   0   0   0   0   0
  0   0   0   0   0   0   0   0   0   0   0   0   0   0   0   0   0   0   0   0   0   0
  0   0   0   0   0   0   0   0   0   0   0   0   0   0   0   0   0   0   0   0   0   0
  0   0   0   0   0   0   0   0   0
  0   0   0  75  11  15 142  20  27 145  20  28 145  20  28 138  19  27  35   5   7   0
  0   0   0   0   0   0   0   0   0   0   0  33   5   6 130  18  25 149  21  29 136  19
 26  28   4   5   0   0   0   0   0   0   0   0   0   0   0   0   0   0   0   0   0   0
  0   0   0   0   0   0   0   0   0   0   0   0   0   0   0   0   0   0   0   0   0   0
  0   0   0   0   0   0   0   0   0   0   0   0   0   0   0   0   0   0   0   0   0   0
  0   0   0   0   0   0   0   0   0   0   0   0   0   0   0   0   0   0   0   0   0   0
  0   0   0   0   0   0   0   0   0   0   0   0   0   0   0   0   0   0   0   0   0   0
  0   0   0   0   0   0   0   0   0   0   0   0   0   0   0   0   0   0   0   0   0   0
  0   0   0   0   0   0   0   0   0   0   0   0   0   0   0   0   0   0   0   0   0   0
  0   0   0   0   0   0   0   0   0   0   0   0   0   0   0   0   0   0   0   0   0   0
  0   0   0   0   0   0   0   0   0   0   0   0   0   0   0   0   0   0   0   0   0   0
  0   0   0   0   0   0   0   0   0   0   0   0   0  50   7  10 127  18  25 135  19  26
141  20  27 106  15  21   6   1   1
  0   0   0  14   2   3 119  17  23 152  21  29 150  21  29 152  21  29  73  10  14   0
  0   0   0   0   0   0   0   0   0   0   0   3   0   0 105  15  20 155  22  30 112  16
 22   7   1   1   0   0   0   0   0   0   0   0   0   0   0   0   0   0   0   0   0   0
  0   0   0   0   0   0   0   0   0   0   0   0   0   0   0   0   0   0   0   0   0   0
  0   0   0   0   0   0   0   0   0   0   0   0   0   0   0   0   0   0   0   0   0   0
  0   0   0   0   0   0   0   0   0   0   0   0   0   0   0   0   0   0   0   0   0   0
  0   0   0   0   0   0   0   0   0   0   0   0   0   0   0   0   0   0   0   0   0   0
  0   0   0   0   0   0   0   0   0   0   0   0   0   0   0   0   0   0   0   0   0   0
  0   0   0   0   0   0   0   0   0   0   0   0   0   0   0   0   0   0   0   0   0   0
  0   0   0   0   0   0   0   0   0   0   0   0   0   0   0   0   0   0   0   0   0   0
  0   0   0   0   0   0   0   0   0   0   0   0   0   0   0   0   0   0   0   0   0   0
  0   0   0   0   0   0   0   0   0   0   0   0   0  21   3   4 135  19  26 152  21  29
153  21  30 112  16  22  15   2   3
  0   0   0   0   0   0  74  10  14 152  21  29 150  21  29 152  21  29 115  16  22   8
  1   2   0   0   0   0   0   0   0   0   0  12   2   2 123  17  24 153  21  30  69  10
 13   0   0   0   0   0   0   0   0   0   0   0   0   0   0   0   0   0   0   0   0   0
  0   0   0   0   0   0   0   0   0   0   0   0   0   0   0   0   0   0   0   0   0   0
  0   0   0   0   0   0   0   0   0   0   0   0   0   0   0   0   0   0   0   0   0   0
  0   0   0   0   0   0   0   0   0   0   0   0   0   0   0   0   0   0   0   0   0   0
  0   0   0   0   0   0   0   0   0   0   0   0   0   0   0   0   0   0   0   0   0   0
  0   0   0   0   0   0   0   0   0   0   0   0   0   0   0   0   0   0   0   0   0   0
  0   0   0   0   0   0   0   0   0   0   0   0   0   0   0   0   0   0   0   0   0   0
  0   0   0   0   0   0   0   0   0   0   0   0   0   0   0   0   0   0   0   0   0   0
  0   0   0   0   0   0   0   0   0   0   0   0   0   0   0   0   0   0   0   0   0   0
  0   0   0   0   0   0   0   0   0   0   0   0   0  17   2   3 130  18  25 151  21  29
152  21  29 111  16  22  13   2   3
  0   0   0   0   0   0  32   4   6 140  20  27 151  21  29 151  21  29 142  20  27  36
  5   7   0   0   0   0   0   0   0   0   0  41   6   8 145  20  28 139  19  27  29   4
  6   0   0   0   0   0   0   0   0   0   0   0   0   0   0   0   0   0   0   0   0   0
  0   0   0   0   0   0   0   0   0   0   0   0   0   0   0   0   0   0   0   0   0   0
  0   0   0   0   0   0   0   0   0   0   0   0   0   0   0   0   0   0   0   0   0   0
  0   0   0   0   0   0   0   0   0   0   0   0   0   0   0   0   0   0   0   0   0   0
  0   0   0   0   0   0   0   0   0   0   0   0   0   0   0   0   0   0   0   0   0   0
  0   0   0   0   0   0   0   0   0   0   0   0   0   0   0   0   0   0   0   0   0   0
  0   0   0   0   0   0   0   0   0   0   0   0   0   0   0   0   0   0   0   0   0   0
  0   0   0   0   0   0   0   0   0   0   0   0   0   0   0   0   0   0   0   0   0   0
  0   0   0   0   0   0   0   0   0   0   0   0   0   0   0   0   0   0   0   0   0   0
  0   0   0   0   0   0   0   0   0   0   0   0   0  15   2   3 131  18  25 151  21  29
152  21  29 112  16  22   5   1   1
  0   0   0   0   0   0   6   1   1 109  15  21 152  21  29 150  21  29 152  21  29  77
 11  15   0   0   0   0   0   0   0   0   0  80  11  15 154  22  30 108  15  21   5   1
  1  27   4   5  61   8  12  75  10  14  77  11  15  64   9  12  36   5   7   6   1   1
  0   0   0   0   0   0  14   2   3  53   7  10  62   9  12  67   9  13  67   9  13  19
  3   4  39   5   8  72  10  14  70  10  14  38   5   7   4   1   1   0   0   0   0   0
  0   0   0   0   5   1   1  36   5   7  64   9  12  76  11  15  77  11  15  77  11  15
 77  11  15  77  11  15  77  11  15  77  11  15  77  11  15  77  11  15  78  11  15  73
 10  14  16   2   3   2   0   0  38   5   7  60   8  12  65   9  13  71  10  14  39   6
  8   0   0   0   0   0   0   4   1   1  41   6   8  66   9  13  77  11  15  74  10  14
 56   8  11  24   3   5   1   0   0   0   0   0   0   0   0  25   3   5  58   8  11  63
  9  12  69  10  13  56   8  11  27   4   5  75  10  14  65   9  13   3   0   1   0   0
  0  21   3   4  63   9  12  82  11  16  65   9  13  42   6   8 131  18  25 151  21  29
152  21  29 112  16  22   5   1   1
  0   0   0   0   0   0   0   0   0  64   9  12 150  21  29 150  21  29 152  21  29 118
 17  23  10   1   2   0   0   0   9   1   2 118  16  23 152  21  29  65   9  13   5   1
  1 113  16  22 155  22  30 154  22  30 154  22  30 151  21  29 143  20  28 100  14  19
 17   2   3   0   0   0   8   1   1 107  15  21 153  21  30 152  21  29 146  20  28 114
 16  22 144  20  28 153  21  30 152  21  29 143  20  28  80  11  15   4   1   1   0   0
  0  20   3   4 100  14  19 143  20  28 152  21  29 154  22  30 154  22  30 152  21  29
152  21  29 151  21  29 151  21  29 151  21  29 152  21  29 152  21  29 153  21  30 143
 20  28  31   4   6   0   0   0  56   8  11 149  21  29 151  21  29 154  22  30  81  11
 16   0   0   0   0   0   0  32   4   6 140  20  27 154  22  30 155  22  30 154  21  30
150  21  29 135  19  26  72  10  14   4   1   1   0   0   0  25   3   5 133  19  26 152
 21  29 153  21  29 135  19  26 125  18  24 156  22  30 118  17  23   7   1   1  50   7
 10 128  18  25 151  21  29 153  21  30 153  21  30 140  20  27 146  20  28 150  21  29
152  21  29 112  16  22   5   1   1
  0   0   0   0   0   0   0   0   0  24   3   5 134  19  26 151  21  29 150  21  29 144
 20  28  39   5   7   0   0   0  35   5   7 143  20  28 138  19  27  25   4   5  28   4
  5 116  16  22  96  13  19  81  11  16 105  15  20 146  20  28 151  21  29 153  21  30
 84  12  16   0   0   0   0   0   0  89  12  17 153  21  30 150  21  29 151  21  29 142
 20  27 115  16  22 137  19  26 151  21  29 151  21  29 144  20  28  38   5   7   3   0
  1 100  14  19 153  21  30 152  21  29 130  18  25  74  10  14 113  16  22 151  21  29
151  21  29 132  18  26  61   9  12  50   7  10 110  15  21 152  21  29 151  21  29 141
 20  27  31   4   6   0   0   0  35   5   7 144  20  28 150  21  29 152  21  29  80  11
 15   0   0   0   0   0   0  63   9  12 117  16  23  88  12  17  83  12  16 122  17  24
150  21  29 152  21  29 145  20  28  44   6   9   0   0   0   9   1   2 121  17  23 152
 21  29 150  21  29 151  21  29 148  21  29 132  19  26  96  13  19  40   6   8 136  19
 26 152  21  29 151  21  29 134  19  26  98  14  19 128  18  25 151  21  29 150  21  29
152  21  29 112  16  22   5   1   1
  0   0   0   0   0   0   0   0   0   2   0   0  99  14  19 152  21  29 150  21  29 152
 21  29  81  11  16   0   0   0  73  10  14 154  22  30 105  15  20   4   1   1  11   2
  2  14   2   3   0   0   0   0   0   0  16   2   3 126  18  24 151  21  29 152  21  29
122  17  24  11   1   2   0   0   0  89  12  17 153  21  29 150  21  29 148  21  29  64
  9  12   3   0   1  60   8  12 148  21  29 150  21  29 151  21  29  63   9  12  26   4
  5 140  20  27 151  21  29 151  21  29  72  10  14   0   0   0  39   5   7 144  20  28
151  21  29 147  21  28  52   7  10   0   0   0  88  12  17 153  21  30 151  21  29 141
 20  27  31   4   6   0   0   0  36   5   7 144  20  28 150  21  29 152  21  29  80  11
 15   0   0   0   0   0   0  17   2   3   8   1   1   0   0   0   0   0   0  48   7   9
146  20  28 150  21  29 153  21  30  83  12  16   0   0   0   9   1   2 121  17  23 152
 21  29 150  21  29 145  20  28  69  10  13  16   2   3  12   2   2  92  13  18 153  21
 30 150  21  29 145  20  28  52   7  10   0   0   0  41   6   8 142  20  27 151  21  29
152  21  29 112  16  22   5   1   1
  0   0   0   0   0   0   0   0   0   0   0   0  53   7  10 148  21  29 150  21  29 152
 21  29 120  17  23  18   3   3 112  16  22 152  21  29  62   9  12   0   0   0   0   0
  0  12   2   2  35   5   7  60   8  12 100  14  19 146  20  28 150  21  29 151  21  29
129  18  25  16   2   3   0   0   0  89  12  17 153  21  29 151  21  29 141  20  27  29
  4   6   0   0   0  38   5   7 145  20  28 150  21  29 152  21  29  66   9  13  30   4
  6 142  20  27 151  21  29 150  21  29  58   8  11   0   0   0  29   4   6 141  20  27
151  21  29 153  21  30  78  11  15   0   0   0  90  13  17 153  21  30 151  21  29 141
 20  27  31   4   6   0   0   0  36   5   7 144  20  28 150  21  29 152  21  29  80  11
 15   0   0   0   0   0   0   1   0   0  19   3   4  43   6   8  70  10  14 119  17  23
150  21  29 150  21  29 153  21  30  93  13  18   0   0   0   9   1   2 121  17  23 152
 21  29 152  21  29 123  17  24  11   1   2   0   0   0  11   2   2 123  17  24 152  21
 29 151  21  29 127  18  24  13   2   3   0   0   0  17   2   3 131  18  25 151  21  29
152  21  29 112  16  22   5   1   1
  0   0   0   0   0   0   0   0   0   0   0   0  17   2   3 127  18  25 151  21  29 150
 21  29 143  20  28  72  10  14 138  19  27 136  19  26  24   3   5   8   1   2  74  10
 14 124  17  24 143  20  28 152  21  29 153  21  29 149  21  29 150  21  29 151  21  29
130  18  25  17   2   3   0   0   0  89  12  17 153  21  29 151  21  29 140  20  27  29
  4   6   0   0   0  38   5   7 145  20  28 150  21  29 152  21  29  68   9  13   8   1
  1 114  16  22 153  21  30 152  21  29 102  14  20  22   3   4  73  10  14 149  21  29
151  21  29 148  21  29  51   7  10   0   0   0  90  13  17 153  21  30 151  21  29 141
 20  27  31   4   6   0   0   0  36   5   7 144  20  28 150  21  29 152  21  29  80  11
 15   0   0   0  26   4   5  95  13  18 132  19  26 147  21  28 153  21  30 151  21  29
149  21  29 150  21  29 153  21  30  95  13  18   0   0   0   9   1   2 121  17  23 152
 21  29 152  21  29 118  16  23   8   1   1   0   0   0  20   3   4 134  19  26 151  21
 29 152  21  29 118  16  23   8   1   1   0   0   0  17   2   3 130  18  25 151  21  29
152  21  29 112  16  22   5   1   1
  0   0   0   0   0   0   0   0   0   0   0   0   0   0   0  88  12  17 152  21  29 150
 21  29 150  21  29 137  19  27 151  21  29 102  14  20   4   1   1  80  11  15 151  21
 29 152  21  29 151  21  29 123  17  24  66   9  13 111  16  21 152  21  29 151  21  29
131  18  25  18   2   3   0   0   0  89  12  17 153  21  29 151  21  29 140  20  27  29
  4   6   0   0   0  38   5   7 145  20  28 150  21  29 152  21  29  68  10  13   0   0
  0  36   5   7 125  17  24 150  21  29 149  21  29 136  19  26 146  21  28 153  21  30
146  20  28  89  12  17   7   1   1   0   0   0  90  13  17 153  21  30 151  21  29 141
 20  27  30   4   6   0   0   0  36   5   7 144  20  28 150  21  29 152  21  29  79  11
 15  12   2   2 116  16  22 153  21  30 151  21  29 148  21  29 102  14  20  66   9  13
135  19  26 151  21  29 153  21  30  96  14  19   0   0   0   9   1   2 121  17  23 152
 21  29 152  21  29 118  16  23   8   1   2   0   0   0  16   2   3 129  18  25 151  21
 29 152  21  29 126  18  24  13   2   3   0   0   0  17   2   3 130  18  25 151  21  29
152  21  29 112  16  22   5   1   1
  0   0   0   0   0   0   0   0   0   0   0   0   0   0   0  39   5   8 143  20  28 151
 21  29 150  21  29 151  21  29 150  21  29  59   8  11   9   1   2 124  17  24 152  21
 29 150  21  29 144  20  28  40   6   8   0   0   0  94  13  18 153  21  30 151  21  29
134  19  26  20   3   4   0   0   0  88  12  17 153  21  30 151  21  29 140  20  27  29
  4   6   0   0   0  38   5   7 145  20  28 150  21  29 152  21  29  69  10  13   0   0
  0   1   0   0  57   8  11 135  19  26 148  21  29 139  19  27 124  17  24  95  13  18
 47   7   9   6   1   1   0   0   0   0   0   0  87  12  17 153  21  30 150  21  29 146
 20  28  46   6   9   0   0   0  60   8  12 149  21  29 150  21  29 152  21  29  78  11
 15  40   6   8 147  21  28 150  21  29 152  21  29 121  17  23  10   1   2  13   2   3
130  18  25 151  21  29 153  21  29 101  14  19   0   0   0   9   1   2 121  17  23 152
 21  29 152  21  29 118  16  23   8   1   2   0   0   0   4   0   1 103  14  20 153  21
 30 150  21  29 144  20  28  44   6   8   0   0   0  16   2   3 130  18  25 151  21  29
152  21  29 112  16  22   5   1   1
  0   0   0   0   0   0   0   0   0   0   0   0   0   0   0   3   0   1  88  12  17 151
 21  29 151  21  29 151  21  29 133  19  26  22   3   4   6   1   1 113  16  22 153  21
 30 150  21  29 147  21  28  65   9  13   9   1   2  83  12  16 153  21  30 150  21  29
147  21  28  64   9  12   8   1   2  91  13  18 152  21  29 151  21  29 140  20  27  28
  4   5   0   0   0  38   5   7 145  20  28 150  21  29 152  21  29  68  10  13   0   0
  0  20   3   4 128  18  25 151  21  29 118  17  23  45   6   9  29   4   6  17   2   3
  9   1   2   1   0   0   0   0   0   0   0   0  63   9  12 151  21  29 150  21  29 151
 21  29 125  18  24  94  13  18 134  19  26 151  21  29 150  21  29 152  21  29  78  11
 15  30   4   6 141  20  27 151  21  29 151  21  29 131  18  25  35   5   7  17   2   3
121  17  23 152  21  29 151  21  29 130  18  25  33   5   6  16   2   3 122  17  24 152
 21  29 152  21  29 118  16  23   8   1   1   0   0   0   0   0   0  46   6   9 143  20
 28 151  21  29 151  21  29 119  17  23  44   6   8  33   5   6 130  18  25 151  21  29
152  21  29 112  16  22   5   1   1
  0   0   0   0   0   0   0   0   0   0   0   0   0   0   0   0   0   0  12   2   2  86
 12  17 138  19  27 154  22  30 100  14  19   2   0   0   0   0   0  44   6   9 130  18
 25 151  21  29 153  21  30 147  21  28 116  16  22  56   8  11 124  17  24 152  21  29
153  21  30 146  20  28 123  17  24 139  19  27 153  21  30 153  21  30 146  20  28  39
  5   7   0   0   0  39   5   7 147  21  28 153  21  30 155  22  30  82  11  16   0   0
  0   8   1   2 108  15  21 154  22  30 147  21  28 132  19  26 131  18  25 130  18  25
123  17  24  96  13  18  36   5   7   0   0   0  15   2   3 109  15  21 151  21  29 153
 21  30 154  22  30 149  21  29 126  18  24 149  21  29 153  21  30 155  22  30  91  13
 18   4   1   1  77  11  15 143  20  28 152  21  29 153  21  30 140  20  27  93  13  18
 67   9  13 142  20  27 153  21  30 153  21  30 138  19  27 122  17  24 146  20  28 153
 21  30 154  22  30 127  18  25  14   2   3   0   0   0   0   0   0   2   0   0  70  10
 14 143  20  28 153  21  30 154  22  30 142  20  27  65   9  13 131  18  25 154  22  30
154  22  30 122  17  24  11   1   2
  0   0   0   0   0   0   0   0   0   0   0   0   0   0   0   0   0   0   0   0   0   2
  0   0  29   4   6  74  10  14  44   6   8   0   0   0   0   0   0   0   0   0  24   3
  5  67   9  13  92  13  18  99  14  19  78  11  15   6   1   1  24   3   5  73  10  14
 95  13  18  98  14  19  99  14  19  98  14  19  97  14  19  97  14  19  97  14  19  53
  7  10   0   0   0  24   3   5  94  13  18  97  14  19  98  14  19  77  11  15  11   1
  2   0   0   0  23   3   5  84  12  16  98  14  19 100  14  19 114  16  22 144  20  28
152  21  29 153  21  30 134  19  26  37   5   7   0   0   0  14   2   3  62   9  12  93
 13  18  91  13  18  53   7  10  32   5   6  93  13  18  97  14  19  98  14  19  80  11
 16  14   2   3   3   0   0  39   5   8  78  11  15  95  13  18 100  14  19  52   7  10
  2   0   0  41   6   8  84  12  16  97  14  19  98  14  19  99  14  19  97  14  19  97
 14  19  97  14  19  93  13  18  32   4   6   0   0   0   0   0   0   0   0   0   2   0
  0  44   6   9  96  13  18 114  16  22  85  12  16  19   3   4  84  12  16  98  14  19
 98  14  19  92  13  18  29   4   6
  0   0   0   0   0   0   0   0   0   0   0   0   0   0   0   0   0   0   0   0   0   0
  0   0   0   0   0   0   0   0   0   0   0   0   0   0   0   0   0   0   0   0   0   0
  0   0   0   0   0   0   0   1   0   0   0   0   0   0   0   0   0   0   0   0   0   0
  0   0   0   1   0   0   1   0   0   1   0   0   1   0   0   1   0   0   1   0   0   2
  0   0   0   0   0   0   0   0   1   0   0   1   0   0   1   0   0   1   0   0  10   1
  2  55   8  11  83  12  16  56   8  11   4   1   1   1   0   0   5   1   1  63   9  12
147  21  28 150  21  29 153  21  30  93  13  18   0   0   0   0   0   0   0   0   0   0
  0   0   0   0   0   0   0   0   0   0   0   1   0   0   1   0   0   1   0   0   1   0
  0   1   0   0   0   0   0   0   0   0   0   0   0   0   0   0   1   0   0   0   0   0
  0   0   0   0   0   0   0   0   0   1   0   0   1   0   0   1   0   0   1   0   0   1
  0   0   1   0   0   1   0   0   2   0   0   0   0   0   0   0   0   0   0   0   0   0
  0   0   0   0   1   0   0   5   1   1   2   0   0   0   0   0   1   0   0   1   0   0
  1   0   0   1   0   0   2   0   0
  0   0   0   0   0   0   0   0   0   0   0   0   0   0   0   0   0   0   0   0   0   0
  0   0   0   0   0   0   0   0   0   0   0   0   0   0   0   0   0   0   0   0   0   0
  0   0   0   0   0   0   0   0   0   0   0   0   0   0   0   0   0   0   0   0   0   0
  0   0   0   0   0   0   0   0   0   0   0   0   0   0   0   0   0   0   0   0   0   0
  0   0   0   0   0   0   0   0   0   0   0   0   0   0   0   0   0   1   0   0  82  11
 16 149  21  29 154  22  30  71  10  14   0   0   0   0   0   0   0   0   0  28   4   5
140  20  27 151  21  29 153  21  30 102  14  20   2   0   0   0   0   0   0   0   0   0
  0   0   0   0   0   0   0   0   0   0   0   0   0   0   0   0   0   0   0   0   0   0
  0   0   0   0   0   0   0   0   0   0   0   0   0   0   0   0   0   0   0   0   0   0
  0   0   0   0   0   0   0   0   0   0   0   0   0   0   0   0   0   0   0   0   0   0
  0   0   0   0   0   0   0   0   0   0   0   0   0   0   0   0   0   0   0   0   0   0
  0   0   0   0   0   0   0   0   0   0   0   0   0   0   0   0   0   0   0   0   0   0
  0   0   0   0   0   0   0   0   0
  0   0   0   0   0   0   0   0   0   0   0   0   0   0   0   0   0   0   0   0   0   0
  0   0   0   0   0   0   0   0   0   0   0   0   0   0   0   0   0   0   0   0   0   0
  0   0   0   0   0   0   0   0   0   0   0   0   0   0   0   0   0   0   0   0   0   0
  0   0   0   0   0   0   0   0   0   0   0   0   0   0   0   0   0   0   0   0   0   0
  0   0   0   0   0   0   0   0   0   0   0   0   0   0   0   0   0   5   1   1 112  16
 22 153  21  30 151  21  29 117  16  23  41   6   8  19   3   4  30   4   6  93  13  18
149  21  29 151  21  29 151  21  29  69  10  13   0   0   0   0   0   0   0   0   0   0
  0   0   0   0   0   0   0   0   0   0   0   0   0   0   0   0   0   0   0   0   0   0
  0   0   0   0   0   0   0   0   0   0   0   0   0   0   0   0   0   0   0   0   0   0
  0   0   0   0   0   0   0   0   0   0   0   0   0   0   0   0   0   0   0   0   0   0
  0   0   0   0   0   0   0   0   0   0   0   0   0   0   0   0   0   0   0   0   0   0
  0   0   0   0   0   0   0   0   0   0   0   0   0   0   0   0   0   0   0   0   0   0
  0   0   0   0   0   0   0   0   0
  0   0   0   0   0   0   0   0   0   0   0   0   0   0   0   0   0   0   0   0   0   0
  0   0   0   0   0   0   0   0   0   0   0   0   0   0   0   0   0   0   0   0   0   0
  0   0   0   0   0   0   0   0   0   0   0   0   0   0   0   0   0   0   0   0   0   0
  0   0   0   0   0   0   0   0   0   0   0   0   0   0   0   0   0   0   0   0   0   0
  0   0   0   0   0   0   0   0   0   0   0   0   0   0   0   0   0   0   0   0  50   7
 10 132  18  25 150  21  29 152  21  29 145  20  28 134  19  26 141  20  27 152  21  29
151  21  29 144  20  28  93  13  18  12   2   2   0   0   0   0   0   0   0   0   0   0
  0   0   0   0   0   0   0   0   0   0   0   0   0   0   0   0   0   0   0   0   0   0
  0   0   0   0   0   0   0   0   0   0   0   0   0   0   0   0   0   0   0   0   0   0
  0   0   0   0   0   0   0   0   0   0   0   0   0   0   0   0   0   0   0   0   0   0
  0   0   0   0   0   0   0   0   0   0   0   0   0   0   0   0   0   0   0   0   0   0
  0   0   0   0   0   0   0   0   0   0   0   0   0   0   0   0   0   0   0   0   0   0
  0   0   0   0   0   0   0   0   0
  0   0   0   0   0   0   0   0   0   0   0   0   0   0   0   0   0   0   0   0   0   0
  0   0   0   0   0   0   0   0   0   0   0   0   0   0   0   0   0   0   0   0   0   0
  0   0   0   0   0   0   0   0   0   0   0   0   0   0   0   0   0   0   0   0   0   0
  0   0   0   0   0   0   0   0   0   0   0   0   0   0   0   0   0   0   0   0   0   0
  0   0   0   0   0   0   0   0   0   0   0   0   0   0   0   0   0   0   0   0   0   0
  0  29   4   6  83  12  16 119  17  23 135  19  26 140  20  27 137  19  26 124  17  24
 97  14  19  50   7  10   7   1   1   0   0   0   0   0   0   0   0   0   0   0   0   0
  0   0   0   0   0   0   0   0   0   0   0   0   0   0   0   0   0   0   0   0   0   0
  0   0   0   0   0   0   0   0   0   0   0   0   0   0   0   0   0   0   0   0   0   0
  0   0   0   0   0   0   0   0   0   0   0   0   0   0   0   0   0   0   0   0   0   0
  0   0   0   0   0   0   0   0   0   0   0   0   0   0   0   0   0   0   0   0   0   0
  0   0   0   0   0   0   0   0   0   0   0   0   0   0   0   0   0   0   0   0   0   0
  0   0   0   0   0   0   0   0   0
  0   0   0   0   0   0   0   0   0   0   0   0   0   0   0   0   0   0   0   0   0   0
  0   0   0   0   0   0   0   0   0   0   0   0   0   0   0   0   0   0   0   0   0   0
  0   0   0   0   0   0   0   0   0   0   0   0   0   0   0   0   0   0   0   0   0   0
  0   0   0   0   0   0   0   0   0   0   0   0   0   0   0   0   0   0   0   0   0   0
  0   0   0   0   0   0   0   0   0   0   0   0   0   0   0   0   0   0   0   0   0   0
  0   0   0   0   0   0   0   0   0   0   0   0   0   0   0   0   0   0   0   0   0   0
  0   0   0   0   0   0   0   0   0   0   0   0   0   0   0   0   0   0   0   0   0   0
  0   0   0   0   0   0   0   0   0   0   0   0   0   0   0   0   0   0   0   0   0   0
  0   0   0   0   0   0   0   0   0   0   0   0   0   0   0   0   0   0   0   0   0   0
  0   0   0   0   0   0   0   0   0   0   0   0   0   0   0   0   0   0   0   0   0   0
  0   0   0   0   0   0   0   0   0   0   0   0   0   0   0   0   0   0   0   0   0   0
  0   0   0   0   0   0   0   0   0   0   0   0   0   0   0   0   0   0   0   0   0   0
  0   0   0   0   0   0   0   0   0
  0   0   0   0   0   0   0   0   0   0   0   0   0   0   0   0   0   0   0   0   0   0
  0   0   0   0   0   0   0   0   0   0   0   0   0   0   0   0   0   0   0   0   0   0
  0   0   0   0   0   0   0   0   0   0   0   0   0   0   0   0   0   0   0   0   0   0
  0   0   0   0   0   0   0   0   0   0   0   0   0   0   0   0   0   0   0   0   0   0
  0   0   0   0   0   0   0   0   0   0   0   0   0   0   0   0   0   0   0   0   0   0
  0   0   0   0   0   0   0   0   0   0   0   0   0   0   0   0   0   0   0   0   0   0
  0   0   0   0   0   0   0   0   0   0   0   0   0   0   0   0   0   0   0   0   0   0
  0   0   0   0   0   0   0   0   0   0   0   0   0   0   0   0   0   0   0   0   0   0
  0   0   0   0   0   0   0   0   0   0   0   0   0   0   0   0   0   0   0   0   0   0
  0   0   0   0   0   0   0   0   0   0   0   0   0   0   0   0   0   0   0   0   0   0
  0   0   0   0   0   0   0   0   0   0   0   0   0   0   0   0   0   0   0   0   0   0
  0   0   0   0   0   0   0   0   0   0   0   0   0   0   0   0   0   0   0   0   0   0
  0   0   0   0   0   0   0   0   0
  0   0   0   0   0   0   0   0   0   0   0   0   0   0   0   0   0   0   0   0   0   0
  0   0   0   0   0   0   0   0   0   0   0   0   0   0   0   0   0   0   0   0   0   0
  0   0   0   0   0   0   0   0   0   0   0   0   0   0   0   0   0   0   0   0   0   0
  0   0   0   0   0   0   0   0   0   0   0   0   0   0   0   0   0   0   0   0   0   0
  0   0   0   0   0   0   0   0   0   0   0   0   0   0   0   0   0   0   0   0   0   0
  0   0   0   0   0   0   0   0   0   0   0   0   0   0   0   0   0   0   0   0   0   0
  0   0   0   0   0   0   0   0   0   0   0   0   0   0   0   0   0   0   0   0   0   0
  0   0   0   0   0   0   0   0   0   0   0   0   0   0   0   0   0   0   0   0   0   0
  0   0   0   0   0   0   0   0   0   0   0   0   0   0   0   0   0   0   0   0   0   0
  0   0   0   0   0   0   0   0   0   0   0   0   0   0   0   0   0   0   0   0   0   0
  0   0   0   0   0   0   0   0   0   0   0   0   0   0   0   0   0   0   0   0   0   0
  0   0   0   0   0   0   0   0   0   0   0   0   0   0   0   0   0   0   0   0   0   0
  0   0   0   0   0   0   0   0   0
  0   0   0   0   0   0   0   0   0   0   0   0   0   0   0   0   0   0   0   0   0   0
  0   0   0   0   0   0   0   0   0   0   0   0   0   0   0   0   0   0   0   0   0   0
  0   0   0   0   0   0   0   0   0   0   0   0   0   0   0   0   0   0   0   0   0   0
  0   0   0   0   0   0   0   0   0   0   0   0   0   0   0   0   0   0   0   0   0   0
  0   0   0   0   0   0   0   0   0   0   0   0   0   0   0   0   0   0   0   0   0   0
  0   0   0   0   0   0   0   0   0   0   0   0   0   0   0   0   0   0   0   0   0   0
  0   0   0   0   0   0   0   0   0   0   0   0   0   0   0   0   0   0   0   0   0   0
  0   0   0   0   0   0   0   0   0   0   0   0   0   0   0   0   0   0   0   0   0   0
  0   0   0   0   0   0   0   0   0   0   0   0   0   0   0   0   0   0   0   0   0   0
  0   0   0   0   0   0   0   0   0   0   0   0   0   0   0   0   0   0   0   0   0   0
  0   0   0   0   0   0   0   0   0   0   0   0   0   0   0   0   0   0   0   0   0   0
  0   0   0   0   0   0   0   0   0   0   0   0   0   0   0   0   0   0   0   0   0   0
  0   0   0   0   0   0   0   0   0
  0   0   0   0   0   0   0   0   0   0   0   0   0   0   0   0   0   0   0   0   0   0
  0   0   0   0   0   0   0   0   0   0   0   0   0   0   0   0   0   0   0   0   0   0
  0   0   0   0   0   0   0   0   0   0   0   0   0   0   0   0   0   0   0   0   0   0
  0   0   0   0   0   0   0   0   0   0   0   0   0   0   0   0   0   0   0   0   0   0
  0   0   0   0   0   0   0   0   0   0   0   0   0   0   0   0   0   0   0   0   0   0
  0   0   0   0   0   0   0   0   0   0   0   0   0   0   0   0   0   0   0   0   0   0
  0   0   0   0   0   0   0   0   0   0   0   0   0   0   0   0   0   0   0   0   0   0
  0   0   0   0   0   0   0   0   0   0   0   0   0   0   0   0   0   0   0   0   0   0
  0   0   0   0   0   0   0   0   0   0   0   0   0   0   0   0   0   0   0   0   0   0
  0   0   0   0   0   0   0   0   0   0   0   0   0   0   0   0   0   0   0   0   0   0
  0   0   0   0   0   0   0   0   0   0   0   0   0   0   0   0   0   0   0   0   0   0
  0   0   0   0   0   0   0   0   0   0   0   0   0   0   0   0   0   0   0   0   0   0
  0   0   0   0   0   0   0   0   0
  0   0   0   0   0   0   0   0   0   0   0   0   0   0   0   0   0   0   0   0   0   0
  0   0   0   0   0   0   0   0   0   0   0   0   0   0   0   0   0   0   0   0   0   0
  0   0   0   0   0   0   0   0   0   0   0   0   0   0   0   0   0   0   0   0   0   0
  0   0   0   0   0   0   0   0   0   0   0   0   0   0   0   0   0   0   0   0   0   0
  0   0   0   0   0   0   0   0   0   0   0   0   0   0   0   0   0   0   0   0   0   0
  0   0   0   0   0   0   0   0   0   0   0   0   0   0   0   0   0   0   0   0   0   0
  0   0   0   0   0   0   0   0   0   0   0   0   0   0   0   0   0   0   0   0   0   0
  0   0   0   0   0   0   0   0   0   0   0   0   0   0   0   0   0   0   0   0   0   0
  0   0   0   0   0   0   0   0   0   0   0   0   0   0   0   0   0   0   0   0   0   0
  0   0   0   0   0   0   0   0   0   0   0   0   0   0   0   0   0   0   0   0   0   0
  0   0   0   0   0   0   0   0   0   0   0   0   0   0   0   0   0   0   0   0   0   0
  0   0   0   0   0   0   0   0   0   0   0   0   0   0   0   0   0   0   0   0   0   0
  0   0   0   0   0   0   0   0   0
